<mxfile host="app.diagrams.net" modified="2024-02-09T16:40:27.800Z" agent="Mozilla/5.0 (Macintosh; Intel Mac OS X 10_15_7) AppleWebKit/537.36 (KHTML, like Gecko) Chrome/121.0.0.0 Safari/537.36" etag="iCRgSFDKaLInpXawdpQ-" version="23.1.1" type="github">
  <diagram name="第 1 页" id="joOyQHn6fe_o9GlbGfYn">
    <mxGraphModel dx="2120" dy="1291" grid="1" gridSize="10" guides="1" tooltips="1" connect="1" arrows="1" fold="1" page="1" pageScale="1" pageWidth="827" pageHeight="1169" math="0" shadow="0">
      <root>
        <mxCell id="0" />
        <mxCell id="1" parent="0" />
        <mxCell id="7qjoNf8k50oeYzj5r46e-18" value="" style="rounded=0;whiteSpace=wrap;html=1;fillColor=none;" parent="1" vertex="1">
          <mxGeometry x="2190" y="4140" width="860" height="860" as="geometry" />
        </mxCell>
        <mxCell id="pTXybVgJqZ9y9Wd8oj7y-96" value="" style="rounded=1;whiteSpace=wrap;html=1;strokeWidth=2;fillWeight=4;hachureGap=8;hachureAngle=45;fillColor=#dae8fc;sketch=1;fillStyle=solid;strokeColor=#6c8ebf;" parent="1" vertex="1">
          <mxGeometry x="1745" y="820" width="570" height="290" as="geometry" />
        </mxCell>
        <mxCell id="pTXybVgJqZ9y9Wd8oj7y-1" value="" style="rounded=1;whiteSpace=wrap;html=1;strokeWidth=2;fillWeight=4;hachureGap=8;hachureAngle=45;fillColor=#f5f5f5;sketch=1;fillStyle=solid;fontColor=#333333;strokeColor=#666666;" parent="1" vertex="1">
          <mxGeometry x="115" y="80" width="680" height="680" as="geometry" />
        </mxCell>
        <mxCell id="pTXybVgJqZ9y9Wd8oj7y-2" value="" style="rounded=1;whiteSpace=wrap;html=1;strokeWidth=2;fillWeight=4;hachureGap=8;hachureAngle=45;fillColor=#dae8fc;sketch=1;fillStyle=solid;strokeColor=#6c8ebf;" parent="1" vertex="1">
          <mxGeometry x="165" y="150" width="150" height="290" as="geometry" />
        </mxCell>
        <mxCell id="pTXybVgJqZ9y9Wd8oj7y-3" value="&lt;font face=&quot;Comic Sans MS&quot; style=&quot;font-size: 18px;&quot;&gt;thread-1&lt;/font&gt;" style="text;html=1;strokeColor=none;fillColor=none;align=center;verticalAlign=middle;whiteSpace=wrap;rounded=0;fontSize=18;" parent="1" vertex="1">
          <mxGeometry x="180" y="170" width="120" height="20" as="geometry" />
        </mxCell>
        <mxCell id="pTXybVgJqZ9y9Wd8oj7y-4" value="栈" style="rounded=1;whiteSpace=wrap;html=1;strokeWidth=2;fillWeight=4;hachureGap=8;hachureAngle=45;fillColor=#1ba1e2;sketch=1;fillStyle=solid;fontSize=18;" parent="1" vertex="1">
          <mxGeometry x="175" y="200" width="130" height="50" as="geometry" />
        </mxCell>
        <mxCell id="pTXybVgJqZ9y9Wd8oj7y-5" value="native栈" style="rounded=1;whiteSpace=wrap;html=1;strokeWidth=2;fillWeight=4;hachureGap=8;hachureAngle=45;fillColor=#1ba1e2;sketch=1;fillStyle=solid;fontSize=18;" parent="1" vertex="1">
          <mxGeometry x="175" y="260" width="130" height="50" as="geometry" />
        </mxCell>
        <mxCell id="pTXybVgJqZ9y9Wd8oj7y-6" value="PC寄存器" style="rounded=1;whiteSpace=wrap;html=1;strokeWidth=2;fillWeight=4;hachureGap=8;hachureAngle=45;fillColor=#1ba1e2;sketch=1;fillStyle=solid;fontSize=18;" parent="1" vertex="1">
          <mxGeometry x="175" y="320" width="130" height="50" as="geometry" />
        </mxCell>
        <mxCell id="pTXybVgJqZ9y9Wd8oj7y-23" value="" style="rounded=1;whiteSpace=wrap;html=1;strokeWidth=2;fillWeight=4;hachureGap=8;hachureAngle=45;fillColor=#dae8fc;sketch=1;fillStyle=solid;strokeColor=#6c8ebf;" parent="1" vertex="1">
          <mxGeometry x="170" y="450" width="570" height="290" as="geometry" />
        </mxCell>
        <mxCell id="pTXybVgJqZ9y9Wd8oj7y-24" value="堆" style="text;html=1;strokeColor=none;fillColor=none;align=center;verticalAlign=middle;whiteSpace=wrap;rounded=0;fontSize=22;" parent="1" vertex="1">
          <mxGeometry x="412.5" y="470" width="60" height="30" as="geometry" />
        </mxCell>
        <mxCell id="pTXybVgJqZ9y9Wd8oj7y-26" value="" style="rounded=1;whiteSpace=wrap;html=1;strokeWidth=2;fillWeight=4;hachureGap=8;hachureAngle=45;fillColor=#d5e8d4;sketch=1;fillStyle=solid;strokeColor=#82b366;" parent="1" vertex="1">
          <mxGeometry x="205" y="520" width="500" height="190" as="geometry" />
        </mxCell>
        <mxCell id="pTXybVgJqZ9y9Wd8oj7y-28" value="方法区（永久代）" style="text;html=1;strokeColor=none;fillColor=none;align=center;verticalAlign=middle;whiteSpace=wrap;rounded=0;fontSize=22;" parent="1" vertex="1">
          <mxGeometry x="334.38" y="535" width="216.25" height="20" as="geometry" />
        </mxCell>
        <mxCell id="pTXybVgJqZ9y9Wd8oj7y-29" value="" style="rounded=1;whiteSpace=wrap;html=1;strokeWidth=2;fillWeight=4;hachureGap=8;hachureAngle=45;fillColor=#ffe6cc;sketch=1;fillStyle=solid;strokeColor=#d79b00;" parent="1" vertex="1">
          <mxGeometry x="223.75" y="570" width="462.5" height="120" as="geometry" />
        </mxCell>
        <mxCell id="pTXybVgJqZ9y9Wd8oj7y-30" value="运行时常量池" style="text;html=1;strokeColor=none;fillColor=none;align=center;verticalAlign=middle;whiteSpace=wrap;rounded=0;fontSize=22;" parent="1" vertex="1">
          <mxGeometry x="338.75" y="585" width="207.5" height="30" as="geometry" />
        </mxCell>
        <mxCell id="pTXybVgJqZ9y9Wd8oj7y-31" value="1.6运行时内存区域" style="text;html=1;strokeColor=none;fillColor=none;align=center;verticalAlign=middle;whiteSpace=wrap;rounded=0;fontSize=32;" parent="1" vertex="1">
          <mxGeometry x="290" y="110" width="305" height="20" as="geometry" />
        </mxCell>
        <mxCell id="pTXybVgJqZ9y9Wd8oj7y-32" value="" style="rounded=1;whiteSpace=wrap;html=1;strokeWidth=2;fillWeight=4;hachureGap=8;hachureAngle=45;fillColor=#dae8fc;sketch=1;fillStyle=solid;strokeColor=#6c8ebf;" parent="1" vertex="1">
          <mxGeometry x="367.5" y="150" width="150" height="290" as="geometry" />
        </mxCell>
        <mxCell id="pTXybVgJqZ9y9Wd8oj7y-33" value="&lt;font face=&quot;Comic Sans MS&quot; style=&quot;font-size: 18px;&quot;&gt;thread-2&lt;/font&gt;" style="text;html=1;strokeColor=none;fillColor=none;align=center;verticalAlign=middle;whiteSpace=wrap;rounded=0;fontSize=18;" parent="1" vertex="1">
          <mxGeometry x="382.5" y="170" width="120" height="20" as="geometry" />
        </mxCell>
        <mxCell id="pTXybVgJqZ9y9Wd8oj7y-34" value="栈" style="rounded=1;whiteSpace=wrap;html=1;strokeWidth=2;fillWeight=4;hachureGap=8;hachureAngle=45;fillColor=#1ba1e2;sketch=1;fillStyle=solid;fontSize=18;" parent="1" vertex="1">
          <mxGeometry x="377.5" y="200" width="130" height="50" as="geometry" />
        </mxCell>
        <mxCell id="pTXybVgJqZ9y9Wd8oj7y-35" value="native栈" style="rounded=1;whiteSpace=wrap;html=1;strokeWidth=2;fillWeight=4;hachureGap=8;hachureAngle=45;fillColor=#1ba1e2;sketch=1;fillStyle=solid;fontSize=18;" parent="1" vertex="1">
          <mxGeometry x="377.5" y="260" width="130" height="50" as="geometry" />
        </mxCell>
        <mxCell id="pTXybVgJqZ9y9Wd8oj7y-36" value="PC寄存器" style="rounded=1;whiteSpace=wrap;html=1;strokeWidth=2;fillWeight=4;hachureGap=8;hachureAngle=45;fillColor=#1ba1e2;sketch=1;fillStyle=solid;fontSize=18;" parent="1" vertex="1">
          <mxGeometry x="377.5" y="320" width="130" height="50" as="geometry" />
        </mxCell>
        <mxCell id="pTXybVgJqZ9y9Wd8oj7y-37" value="" style="rounded=1;whiteSpace=wrap;html=1;strokeWidth=2;fillWeight=4;hachureGap=8;hachureAngle=45;fillColor=#dae8fc;sketch=1;fillStyle=solid;strokeColor=#6c8ebf;" parent="1" vertex="1">
          <mxGeometry x="580" y="150" width="150" height="290" as="geometry" />
        </mxCell>
        <mxCell id="pTXybVgJqZ9y9Wd8oj7y-38" value="&lt;font face=&quot;Comic Sans MS&quot; style=&quot;font-size: 18px;&quot;&gt;thread-3&lt;br&gt;&lt;/font&gt;" style="text;html=1;strokeColor=none;fillColor=none;align=center;verticalAlign=middle;whiteSpace=wrap;rounded=0;fontSize=18;" parent="1" vertex="1">
          <mxGeometry x="595" y="170" width="120" height="20" as="geometry" />
        </mxCell>
        <mxCell id="pTXybVgJqZ9y9Wd8oj7y-39" value="栈" style="rounded=1;whiteSpace=wrap;html=1;strokeWidth=2;fillWeight=4;hachureGap=8;hachureAngle=45;fillColor=#1ba1e2;sketch=1;fillStyle=solid;fontSize=18;" parent="1" vertex="1">
          <mxGeometry x="590" y="200" width="130" height="50" as="geometry" />
        </mxCell>
        <mxCell id="pTXybVgJqZ9y9Wd8oj7y-40" value="native栈" style="rounded=1;whiteSpace=wrap;html=1;strokeWidth=2;fillWeight=4;hachureGap=8;hachureAngle=45;fillColor=#1ba1e2;sketch=1;fillStyle=solid;fontSize=18;" parent="1" vertex="1">
          <mxGeometry x="590" y="260" width="130" height="50" as="geometry" />
        </mxCell>
        <mxCell id="pTXybVgJqZ9y9Wd8oj7y-41" value="PC寄存器" style="rounded=1;whiteSpace=wrap;html=1;strokeWidth=2;fillWeight=4;hachureGap=8;hachureAngle=45;fillColor=#1ba1e2;sketch=1;fillStyle=solid;fontSize=18;" parent="1" vertex="1">
          <mxGeometry x="590" y="320" width="130" height="50" as="geometry" />
        </mxCell>
        <mxCell id="pTXybVgJqZ9y9Wd8oj7y-42" value="" style="rounded=1;whiteSpace=wrap;html=1;strokeWidth=2;fillWeight=4;hachureGap=8;hachureAngle=45;fillColor=#f5f5f5;sketch=1;fillStyle=solid;fontColor=#333333;strokeColor=#666666;" parent="1" vertex="1">
          <mxGeometry x="900" y="80" width="680" height="680" as="geometry" />
        </mxCell>
        <mxCell id="pTXybVgJqZ9y9Wd8oj7y-43" value="" style="rounded=1;whiteSpace=wrap;html=1;strokeWidth=2;fillWeight=4;hachureGap=8;hachureAngle=45;fillColor=#dae8fc;sketch=1;fillStyle=solid;strokeColor=#6c8ebf;" parent="1" vertex="1">
          <mxGeometry x="950" y="150" width="150" height="290" as="geometry" />
        </mxCell>
        <mxCell id="pTXybVgJqZ9y9Wd8oj7y-44" value="&lt;font face=&quot;Comic Sans MS&quot; style=&quot;font-size: 18px;&quot;&gt;thread-1&lt;/font&gt;" style="text;html=1;strokeColor=none;fillColor=none;align=center;verticalAlign=middle;whiteSpace=wrap;rounded=0;fontSize=18;" parent="1" vertex="1">
          <mxGeometry x="965" y="170" width="120" height="20" as="geometry" />
        </mxCell>
        <mxCell id="pTXybVgJqZ9y9Wd8oj7y-45" value="栈" style="rounded=1;whiteSpace=wrap;html=1;strokeWidth=2;fillWeight=4;hachureGap=8;hachureAngle=45;fillColor=#1ba1e2;sketch=1;fillStyle=solid;fontSize=18;" parent="1" vertex="1">
          <mxGeometry x="960" y="200" width="130" height="50" as="geometry" />
        </mxCell>
        <mxCell id="pTXybVgJqZ9y9Wd8oj7y-46" value="native栈" style="rounded=1;whiteSpace=wrap;html=1;strokeWidth=2;fillWeight=4;hachureGap=8;hachureAngle=45;fillColor=#1ba1e2;sketch=1;fillStyle=solid;fontSize=18;" parent="1" vertex="1">
          <mxGeometry x="960" y="260" width="130" height="50" as="geometry" />
        </mxCell>
        <mxCell id="pTXybVgJqZ9y9Wd8oj7y-47" value="PC寄存器" style="rounded=1;whiteSpace=wrap;html=1;strokeWidth=2;fillWeight=4;hachureGap=8;hachureAngle=45;fillColor=#1ba1e2;sketch=1;fillStyle=solid;fontSize=18;" parent="1" vertex="1">
          <mxGeometry x="960" y="320" width="130" height="50" as="geometry" />
        </mxCell>
        <mxCell id="pTXybVgJqZ9y9Wd8oj7y-48" value="" style="rounded=1;whiteSpace=wrap;html=1;strokeWidth=2;fillWeight=4;hachureGap=8;hachureAngle=45;fillColor=#dae8fc;sketch=1;fillStyle=solid;strokeColor=#6c8ebf;" parent="1" vertex="1">
          <mxGeometry x="955" y="450" width="570" height="290" as="geometry" />
        </mxCell>
        <mxCell id="pTXybVgJqZ9y9Wd8oj7y-49" value="堆" style="text;html=1;strokeColor=none;fillColor=none;align=center;verticalAlign=middle;whiteSpace=wrap;rounded=0;fontSize=22;" parent="1" vertex="1">
          <mxGeometry x="1030" y="470" width="60" height="30" as="geometry" />
        </mxCell>
        <mxCell id="pTXybVgJqZ9y9Wd8oj7y-50" value="" style="rounded=1;whiteSpace=wrap;html=1;strokeWidth=2;fillWeight=4;hachureGap=8;hachureAngle=45;fillColor=#d5e8d4;sketch=1;fillStyle=solid;strokeColor=#82b366;" parent="1" vertex="1">
          <mxGeometry x="990" y="520" width="500" height="190" as="geometry" />
        </mxCell>
        <mxCell id="pTXybVgJqZ9y9Wd8oj7y-51" value="方法区（永久代）" style="text;html=1;strokeColor=none;fillColor=none;align=center;verticalAlign=middle;whiteSpace=wrap;rounded=0;fontSize=22;" parent="1" vertex="1">
          <mxGeometry x="1101.88" y="530" width="251.25" height="20" as="geometry" />
        </mxCell>
        <mxCell id="pTXybVgJqZ9y9Wd8oj7y-52" value="" style="rounded=1;whiteSpace=wrap;html=1;strokeWidth=2;fillWeight=4;hachureGap=8;hachureAngle=45;fillColor=#ffe6cc;sketch=1;fillStyle=solid;strokeColor=#d79b00;" parent="1" vertex="1">
          <mxGeometry x="1008.75" y="570" width="462.5" height="120" as="geometry" />
        </mxCell>
        <mxCell id="pTXybVgJqZ9y9Wd8oj7y-53" value="运行时常量池" style="text;html=1;strokeColor=none;fillColor=none;align=center;verticalAlign=middle;whiteSpace=wrap;rounded=0;fontSize=22;" parent="1" vertex="1">
          <mxGeometry x="1123.75" y="615" width="207.5" height="30" as="geometry" />
        </mxCell>
        <mxCell id="pTXybVgJqZ9y9Wd8oj7y-55" value="" style="rounded=1;whiteSpace=wrap;html=1;strokeWidth=2;fillWeight=4;hachureGap=8;hachureAngle=45;fillColor=#dae8fc;sketch=1;fillStyle=solid;strokeColor=#6c8ebf;" parent="1" vertex="1">
          <mxGeometry x="1152.5" y="150" width="150" height="290" as="geometry" />
        </mxCell>
        <mxCell id="pTXybVgJqZ9y9Wd8oj7y-56" value="&lt;font face=&quot;Comic Sans MS&quot; style=&quot;font-size: 18px;&quot;&gt;thread-2&lt;/font&gt;" style="text;html=1;strokeColor=none;fillColor=none;align=center;verticalAlign=middle;whiteSpace=wrap;rounded=0;fontSize=18;" parent="1" vertex="1">
          <mxGeometry x="1167.5" y="170" width="120" height="20" as="geometry" />
        </mxCell>
        <mxCell id="pTXybVgJqZ9y9Wd8oj7y-57" value="栈" style="rounded=1;whiteSpace=wrap;html=1;strokeWidth=2;fillWeight=4;hachureGap=8;hachureAngle=45;fillColor=#1ba1e2;sketch=1;fillStyle=solid;fontSize=18;" parent="1" vertex="1">
          <mxGeometry x="1162.5" y="200" width="130" height="50" as="geometry" />
        </mxCell>
        <mxCell id="pTXybVgJqZ9y9Wd8oj7y-58" value="native栈" style="rounded=1;whiteSpace=wrap;html=1;strokeWidth=2;fillWeight=4;hachureGap=8;hachureAngle=45;fillColor=#1ba1e2;sketch=1;fillStyle=solid;fontSize=18;" parent="1" vertex="1">
          <mxGeometry x="1162.5" y="260" width="130" height="50" as="geometry" />
        </mxCell>
        <mxCell id="pTXybVgJqZ9y9Wd8oj7y-59" value="PC寄存器" style="rounded=1;whiteSpace=wrap;html=1;strokeWidth=2;fillWeight=4;hachureGap=8;hachureAngle=45;fillColor=#1ba1e2;sketch=1;fillStyle=solid;fontSize=18;" parent="1" vertex="1">
          <mxGeometry x="1162.5" y="320" width="130" height="50" as="geometry" />
        </mxCell>
        <mxCell id="pTXybVgJqZ9y9Wd8oj7y-60" value="" style="rounded=1;whiteSpace=wrap;html=1;strokeWidth=2;fillWeight=4;hachureGap=8;hachureAngle=45;fillColor=#dae8fc;sketch=1;fillStyle=solid;strokeColor=#6c8ebf;" parent="1" vertex="1">
          <mxGeometry x="1365" y="150" width="150" height="290" as="geometry" />
        </mxCell>
        <mxCell id="pTXybVgJqZ9y9Wd8oj7y-61" value="&lt;font face=&quot;Comic Sans MS&quot; style=&quot;font-size: 18px;&quot;&gt;thread-3&lt;br&gt;&lt;/font&gt;" style="text;html=1;strokeColor=none;fillColor=none;align=center;verticalAlign=middle;whiteSpace=wrap;rounded=0;fontSize=18;" parent="1" vertex="1">
          <mxGeometry x="1380" y="170" width="120" height="20" as="geometry" />
        </mxCell>
        <mxCell id="pTXybVgJqZ9y9Wd8oj7y-62" value="栈" style="rounded=1;whiteSpace=wrap;html=1;strokeWidth=2;fillWeight=4;hachureGap=8;hachureAngle=45;fillColor=#1ba1e2;sketch=1;fillStyle=solid;fontSize=18;" parent="1" vertex="1">
          <mxGeometry x="1375" y="200" width="130" height="50" as="geometry" />
        </mxCell>
        <mxCell id="pTXybVgJqZ9y9Wd8oj7y-63" value="native栈" style="rounded=1;whiteSpace=wrap;html=1;strokeWidth=2;fillWeight=4;hachureGap=8;hachureAngle=45;fillColor=#1ba1e2;sketch=1;fillStyle=solid;fontSize=18;" parent="1" vertex="1">
          <mxGeometry x="1375" y="260" width="130" height="50" as="geometry" />
        </mxCell>
        <mxCell id="pTXybVgJqZ9y9Wd8oj7y-64" value="PC寄存器" style="rounded=1;whiteSpace=wrap;html=1;strokeWidth=2;fillWeight=4;hachureGap=8;hachureAngle=45;fillColor=#1ba1e2;sketch=1;fillStyle=solid;fontSize=18;" parent="1" vertex="1">
          <mxGeometry x="1375" y="320" width="130" height="50" as="geometry" />
        </mxCell>
        <mxCell id="pTXybVgJqZ9y9Wd8oj7y-65" value="1.7运行时内存区域" style="text;html=1;strokeColor=none;fillColor=none;align=center;verticalAlign=middle;whiteSpace=wrap;rounded=0;fontSize=32;" parent="1" vertex="1">
          <mxGeometry x="1075" y="110" width="305" height="20" as="geometry" />
        </mxCell>
        <mxCell id="pTXybVgJqZ9y9Wd8oj7y-67" value="" style="rounded=1;whiteSpace=wrap;html=1;strokeWidth=2;fillWeight=4;hachureGap=8;hachureAngle=45;fillColor=#f5f5f5;sketch=1;fillStyle=solid;fontColor=#333333;strokeColor=#666666;" parent="1" vertex="1">
          <mxGeometry x="1690" y="80" width="680" height="680" as="geometry" />
        </mxCell>
        <mxCell id="pTXybVgJqZ9y9Wd8oj7y-68" value="" style="rounded=1;whiteSpace=wrap;html=1;strokeWidth=2;fillWeight=4;hachureGap=8;hachureAngle=45;fillColor=#dae8fc;sketch=1;fillStyle=solid;strokeColor=#6c8ebf;" parent="1" vertex="1">
          <mxGeometry x="1740" y="150" width="150" height="290" as="geometry" />
        </mxCell>
        <mxCell id="pTXybVgJqZ9y9Wd8oj7y-69" value="&lt;font face=&quot;Comic Sans MS&quot; style=&quot;font-size: 18px;&quot;&gt;thread-1&lt;/font&gt;" style="text;html=1;strokeColor=none;fillColor=none;align=center;verticalAlign=middle;whiteSpace=wrap;rounded=0;fontSize=18;" parent="1" vertex="1">
          <mxGeometry x="1755" y="170" width="120" height="20" as="geometry" />
        </mxCell>
        <mxCell id="pTXybVgJqZ9y9Wd8oj7y-70" value="栈" style="rounded=1;whiteSpace=wrap;html=1;strokeWidth=2;fillWeight=4;hachureGap=8;hachureAngle=45;fillColor=#1ba1e2;sketch=1;fillStyle=solid;fontSize=18;" parent="1" vertex="1">
          <mxGeometry x="1750" y="200" width="130" height="50" as="geometry" />
        </mxCell>
        <mxCell id="pTXybVgJqZ9y9Wd8oj7y-71" value="native栈" style="rounded=1;whiteSpace=wrap;html=1;strokeWidth=2;fillWeight=4;hachureGap=8;hachureAngle=45;fillColor=#1ba1e2;sketch=1;fillStyle=solid;fontSize=18;" parent="1" vertex="1">
          <mxGeometry x="1750" y="260" width="130" height="50" as="geometry" />
        </mxCell>
        <mxCell id="pTXybVgJqZ9y9Wd8oj7y-72" value="PC寄存器" style="rounded=1;whiteSpace=wrap;html=1;strokeWidth=2;fillWeight=4;hachureGap=8;hachureAngle=45;fillColor=#1ba1e2;sketch=1;fillStyle=solid;fontSize=18;" parent="1" vertex="1">
          <mxGeometry x="1750" y="320" width="130" height="50" as="geometry" />
        </mxCell>
        <mxCell id="pTXybVgJqZ9y9Wd8oj7y-73" value="" style="rounded=1;whiteSpace=wrap;html=1;strokeWidth=2;fillWeight=4;hachureGap=8;hachureAngle=45;fillColor=#dae8fc;sketch=1;fillStyle=solid;strokeColor=#6c8ebf;" parent="1" vertex="1">
          <mxGeometry x="1745" y="450" width="570" height="290" as="geometry" />
        </mxCell>
        <mxCell id="pTXybVgJqZ9y9Wd8oj7y-74" value="堆" style="text;html=1;strokeColor=none;fillColor=none;align=center;verticalAlign=middle;whiteSpace=wrap;rounded=0;fontSize=22;" parent="1" vertex="1">
          <mxGeometry x="1987.51" y="500" width="60" height="30" as="geometry" />
        </mxCell>
        <mxCell id="pTXybVgJqZ9y9Wd8oj7y-75" value="" style="rounded=1;whiteSpace=wrap;html=1;strokeWidth=2;fillWeight=4;hachureGap=8;hachureAngle=45;fillColor=#d5e8d4;sketch=1;fillStyle=solid;strokeColor=#82b366;" parent="1" vertex="1">
          <mxGeometry x="1780" y="870" width="500" height="190" as="geometry" />
        </mxCell>
        <mxCell id="pTXybVgJqZ9y9Wd8oj7y-76" value="方法区（元空间）" style="text;html=1;strokeColor=none;fillColor=none;align=center;verticalAlign=middle;whiteSpace=wrap;rounded=0;fontSize=22;" parent="1" vertex="1">
          <mxGeometry x="1916.88" y="880" width="201.25" height="30" as="geometry" />
        </mxCell>
        <mxCell id="pTXybVgJqZ9y9Wd8oj7y-77" value="" style="rounded=1;whiteSpace=wrap;html=1;strokeWidth=2;fillWeight=4;hachureGap=8;hachureAngle=45;fillColor=#ffe6cc;sketch=1;fillStyle=solid;strokeColor=#d79b00;" parent="1" vertex="1">
          <mxGeometry x="1798.75" y="920" width="462.5" height="120" as="geometry" />
        </mxCell>
        <mxCell id="pTXybVgJqZ9y9Wd8oj7y-78" value="运行时常量池" style="text;html=1;strokeColor=none;fillColor=none;align=center;verticalAlign=middle;whiteSpace=wrap;rounded=0;fontSize=22;" parent="1" vertex="1">
          <mxGeometry x="1913.75" y="965" width="207.5" height="30" as="geometry" />
        </mxCell>
        <mxCell id="pTXybVgJqZ9y9Wd8oj7y-79" value="" style="rounded=1;whiteSpace=wrap;html=1;strokeWidth=2;fillWeight=4;hachureGap=8;hachureAngle=45;fillColor=#dae8fc;sketch=1;fillStyle=solid;strokeColor=#6c8ebf;" parent="1" vertex="1">
          <mxGeometry x="1942.5" y="150" width="150" height="290" as="geometry" />
        </mxCell>
        <mxCell id="pTXybVgJqZ9y9Wd8oj7y-80" value="&lt;font face=&quot;Comic Sans MS&quot; style=&quot;font-size: 18px;&quot;&gt;thread-2&lt;/font&gt;" style="text;html=1;strokeColor=none;fillColor=none;align=center;verticalAlign=middle;whiteSpace=wrap;rounded=0;fontSize=18;" parent="1" vertex="1">
          <mxGeometry x="1957.5" y="170" width="120" height="20" as="geometry" />
        </mxCell>
        <mxCell id="pTXybVgJqZ9y9Wd8oj7y-81" value="栈" style="rounded=1;whiteSpace=wrap;html=1;strokeWidth=2;fillWeight=4;hachureGap=8;hachureAngle=45;fillColor=#1ba1e2;sketch=1;fillStyle=solid;fontSize=18;" parent="1" vertex="1">
          <mxGeometry x="1952.5" y="200" width="130" height="50" as="geometry" />
        </mxCell>
        <mxCell id="pTXybVgJqZ9y9Wd8oj7y-82" value="native栈" style="rounded=1;whiteSpace=wrap;html=1;strokeWidth=2;fillWeight=4;hachureGap=8;hachureAngle=45;fillColor=#1ba1e2;sketch=1;fillStyle=solid;fontSize=18;" parent="1" vertex="1">
          <mxGeometry x="1952.5" y="260" width="130" height="50" as="geometry" />
        </mxCell>
        <mxCell id="pTXybVgJqZ9y9Wd8oj7y-83" value="PC寄存器" style="rounded=1;whiteSpace=wrap;html=1;strokeWidth=2;fillWeight=4;hachureGap=8;hachureAngle=45;fillColor=#1ba1e2;sketch=1;fillStyle=solid;fontSize=18;" parent="1" vertex="1">
          <mxGeometry x="1952.5" y="320" width="130" height="50" as="geometry" />
        </mxCell>
        <mxCell id="pTXybVgJqZ9y9Wd8oj7y-84" value="" style="rounded=1;whiteSpace=wrap;html=1;strokeWidth=2;fillWeight=4;hachureGap=8;hachureAngle=45;fillColor=#dae8fc;sketch=1;fillStyle=solid;strokeColor=#6c8ebf;" parent="1" vertex="1">
          <mxGeometry x="2155" y="150" width="150" height="290" as="geometry" />
        </mxCell>
        <mxCell id="pTXybVgJqZ9y9Wd8oj7y-85" value="&lt;font face=&quot;Comic Sans MS&quot; style=&quot;font-size: 18px;&quot;&gt;thread-3&lt;br&gt;&lt;/font&gt;" style="text;html=1;strokeColor=none;fillColor=none;align=center;verticalAlign=middle;whiteSpace=wrap;rounded=0;fontSize=18;" parent="1" vertex="1">
          <mxGeometry x="2170" y="170" width="120" height="20" as="geometry" />
        </mxCell>
        <mxCell id="pTXybVgJqZ9y9Wd8oj7y-86" value="栈" style="rounded=1;whiteSpace=wrap;html=1;strokeWidth=2;fillWeight=4;hachureGap=8;hachureAngle=45;fillColor=#1ba1e2;sketch=1;fillStyle=solid;fontSize=18;" parent="1" vertex="1">
          <mxGeometry x="2165" y="200" width="130" height="50" as="geometry" />
        </mxCell>
        <mxCell id="pTXybVgJqZ9y9Wd8oj7y-87" value="native栈" style="rounded=1;whiteSpace=wrap;html=1;strokeWidth=2;fillWeight=4;hachureGap=8;hachureAngle=45;fillColor=#1ba1e2;sketch=1;fillStyle=solid;fontSize=18;" parent="1" vertex="1">
          <mxGeometry x="2165" y="260" width="130" height="50" as="geometry" />
        </mxCell>
        <mxCell id="pTXybVgJqZ9y9Wd8oj7y-88" value="PC寄存器" style="rounded=1;whiteSpace=wrap;html=1;strokeWidth=2;fillWeight=4;hachureGap=8;hachureAngle=45;fillColor=#1ba1e2;sketch=1;fillStyle=solid;fontSize=18;" parent="1" vertex="1">
          <mxGeometry x="2165" y="320" width="130" height="50" as="geometry" />
        </mxCell>
        <mxCell id="pTXybVgJqZ9y9Wd8oj7y-89" value="1.8运行时内存区域" style="text;html=1;strokeColor=none;fillColor=none;align=center;verticalAlign=middle;whiteSpace=wrap;rounded=0;fontSize=32;" parent="1" vertex="1">
          <mxGeometry x="1865" y="110" width="305" height="20" as="geometry" />
        </mxCell>
        <mxCell id="pTXybVgJqZ9y9Wd8oj7y-91" value="&lt;font style=&quot;font-size: 22px;&quot;&gt;字符串常量池&lt;/font&gt;" style="rounded=1;whiteSpace=wrap;html=1;strokeWidth=2;fillWeight=4;hachureGap=8;hachureAngle=45;fillColor=#fff2cc;sketch=1;fillStyle=solid;strokeColor=#d6b656;" parent="1" vertex="1">
          <mxGeometry x="320" y="620" width="248.75" height="50" as="geometry" />
        </mxCell>
        <mxCell id="pTXybVgJqZ9y9Wd8oj7y-92" value="&lt;font style=&quot;font-size: 22px;&quot;&gt;字符串常量池&lt;/font&gt;" style="rounded=1;whiteSpace=wrap;html=1;strokeWidth=2;fillWeight=4;hachureGap=8;hachureAngle=45;fillColor=#fff2cc;sketch=1;fillStyle=solid;strokeColor=#d6b656;" parent="1" vertex="1">
          <mxGeometry x="1200" y="460" width="248.75" height="50" as="geometry" />
        </mxCell>
        <mxCell id="pTXybVgJqZ9y9Wd8oj7y-93" value="&lt;font style=&quot;font-size: 22px;&quot;&gt;字符串常量池&lt;/font&gt;" style="rounded=1;whiteSpace=wrap;html=1;strokeWidth=2;fillWeight=4;hachureGap=8;hachureAngle=45;fillColor=#fff2cc;sketch=1;fillStyle=solid;strokeColor=#d6b656;" parent="1" vertex="1">
          <mxGeometry x="1905.6200000000001" y="585" width="248.75" height="50" as="geometry" />
        </mxCell>
        <mxCell id="pTXybVgJqZ9y9Wd8oj7y-99" value="堆外" style="text;html=1;strokeColor=none;fillColor=none;align=center;verticalAlign=middle;whiteSpace=wrap;rounded=0;fontSize=22;" parent="1" vertex="1">
          <mxGeometry x="1987.5" y="830" width="60" height="30" as="geometry" />
        </mxCell>
        <mxCell id="VI3pYeIhVGzxhJmt_QfE-10" style="edgeStyle=orthogonalEdgeStyle;rounded=0;orthogonalLoop=1;jettySize=auto;html=1;entryX=0;entryY=0.5;entryDx=0;entryDy=0;strokeWidth=3;" parent="1" source="VI3pYeIhVGzxhJmt_QfE-1" target="VI3pYeIhVGzxhJmt_QfE-3" edge="1">
          <mxGeometry relative="1" as="geometry" />
        </mxCell>
        <mxCell id="VI3pYeIhVGzxhJmt_QfE-1" value="&lt;font face=&quot;Comic Sans MS&quot; style=&quot;font-size: 22px;&quot;&gt;加载（Loading）&lt;/font&gt;" style="rounded=1;whiteSpace=wrap;html=1;strokeWidth=2;fillWeight=4;hachureGap=8;hachureAngle=45;fillColor=#d5e8d4;sketch=1;strokeColor=#82b366;" parent="1" vertex="1">
          <mxGeometry x="140" y="5157.5" width="270.62" height="125" as="geometry" />
        </mxCell>
        <mxCell id="VI3pYeIhVGzxhJmt_QfE-12" style="edgeStyle=orthogonalEdgeStyle;rounded=0;orthogonalLoop=1;jettySize=auto;html=1;exitX=1;exitY=0.5;exitDx=0;exitDy=0;strokeWidth=3;" parent="1" source="VI3pYeIhVGzxhJmt_QfE-3" target="VI3pYeIhVGzxhJmt_QfE-11" edge="1">
          <mxGeometry relative="1" as="geometry" />
        </mxCell>
        <mxCell id="VI3pYeIhVGzxhJmt_QfE-3" value="" style="rounded=1;whiteSpace=wrap;html=1;strokeWidth=2;fillWeight=4;hachureGap=8;hachureAngle=45;fillColor=#d5e8d4;sketch=1;strokeColor=#82b366;" parent="1" vertex="1">
          <mxGeometry x="510.62" y="5110" width="860" height="220" as="geometry" />
        </mxCell>
        <mxCell id="VI3pYeIhVGzxhJmt_QfE-4" value="链接（Linking）" style="text;strokeColor=none;fillColor=none;html=1;fontSize=22;fontStyle=0;verticalAlign=middle;align=center;" parent="1" vertex="1">
          <mxGeometry x="890.62" y="5140" width="100" height="40" as="geometry" />
        </mxCell>
        <mxCell id="VI3pYeIhVGzxhJmt_QfE-8" style="edgeStyle=orthogonalEdgeStyle;rounded=0;orthogonalLoop=1;jettySize=auto;html=1;exitX=1;exitY=0.5;exitDx=0;exitDy=0;strokeWidth=3;" parent="1" source="VI3pYeIhVGzxhJmt_QfE-5" target="VI3pYeIhVGzxhJmt_QfE-6" edge="1">
          <mxGeometry relative="1" as="geometry" />
        </mxCell>
        <mxCell id="VI3pYeIhVGzxhJmt_QfE-5" value="&lt;font style=&quot;font-size: 22px;&quot;&gt;验证（Verification）&lt;/font&gt;" style="rounded=1;whiteSpace=wrap;html=1;strokeWidth=2;fillWeight=4;hachureGap=8;hachureAngle=45;fillColor=#1ba1e2;sketch=1;" parent="1" vertex="1">
          <mxGeometry x="530.62" y="5200" width="210" height="60" as="geometry" />
        </mxCell>
        <mxCell id="VI3pYeIhVGzxhJmt_QfE-9" style="edgeStyle=orthogonalEdgeStyle;rounded=0;orthogonalLoop=1;jettySize=auto;html=1;exitX=1;exitY=0.5;exitDx=0;exitDy=0;entryX=0;entryY=0.5;entryDx=0;entryDy=0;strokeWidth=3;" parent="1" source="VI3pYeIhVGzxhJmt_QfE-6" target="VI3pYeIhVGzxhJmt_QfE-7" edge="1">
          <mxGeometry relative="1" as="geometry" />
        </mxCell>
        <mxCell id="VI3pYeIhVGzxhJmt_QfE-6" value="&lt;font style=&quot;font-size: 22px;&quot;&gt;准备（Preparation）&lt;/font&gt;" style="rounded=1;whiteSpace=wrap;html=1;strokeWidth=2;fillWeight=4;hachureGap=8;hachureAngle=45;fillColor=#1ba1e2;sketch=1;" parent="1" vertex="1">
          <mxGeometry x="835.62" y="5200" width="210" height="60" as="geometry" />
        </mxCell>
        <mxCell id="VI3pYeIhVGzxhJmt_QfE-7" value="&lt;font style=&quot;font-size: 22px;&quot;&gt;解析（Resolution）&lt;/font&gt;" style="rounded=1;whiteSpace=wrap;html=1;strokeWidth=2;fillWeight=4;hachureGap=8;hachureAngle=45;fillColor=#1ba1e2;sketch=1;" parent="1" vertex="1">
          <mxGeometry x="1130.62" y="5200" width="205" height="60" as="geometry" />
        </mxCell>
        <mxCell id="1vysiBBUUvej-au3Tldq-2" style="edgeStyle=orthogonalEdgeStyle;rounded=0;orthogonalLoop=1;jettySize=auto;html=1;exitX=1;exitY=0.5;exitDx=0;exitDy=0;entryX=0;entryY=0.5;entryDx=0;entryDy=0;" edge="1" parent="1" source="VI3pYeIhVGzxhJmt_QfE-11" target="1vysiBBUUvej-au3Tldq-1">
          <mxGeometry relative="1" as="geometry" />
        </mxCell>
        <mxCell id="VI3pYeIhVGzxhJmt_QfE-11" value="&lt;font style=&quot;font-size: 22px;&quot; face=&quot;Comic Sans MS&quot;&gt;初始化（Initialization）&lt;/font&gt;" style="rounded=1;whiteSpace=wrap;html=1;strokeWidth=2;fillWeight=4;hachureGap=8;hachureAngle=45;fillColor=#d5e8d4;sketch=1;strokeColor=#82b366;" parent="1" vertex="1">
          <mxGeometry x="1450.62" y="5157.5" width="270.62" height="125" as="geometry" />
        </mxCell>
        <mxCell id="wal_cVfc2_v4ucgmA8p7-14" value="" style="shape=table;startSize=0;container=1;collapsible=0;childLayout=tableLayout;fontSize=16;" parent="1" vertex="1">
          <mxGeometry x="580" y="1740" width="180" height="120" as="geometry" />
        </mxCell>
        <mxCell id="wal_cVfc2_v4ucgmA8p7-15" value="" style="shape=tableRow;horizontal=0;startSize=0;swimlaneHead=0;swimlaneBody=0;strokeColor=inherit;top=0;left=0;bottom=0;right=0;collapsible=0;dropTarget=0;fillColor=none;points=[[0,0.5],[1,0.5]];portConstraint=eastwest;fontSize=16;" parent="wal_cVfc2_v4ucgmA8p7-14" vertex="1">
          <mxGeometry width="180" height="40" as="geometry" />
        </mxCell>
        <mxCell id="wal_cVfc2_v4ucgmA8p7-16" value="" style="shape=partialRectangle;html=1;whiteSpace=wrap;connectable=0;strokeColor=#6c8ebf;overflow=hidden;fillColor=#dae8fc;top=0;left=0;bottom=0;right=0;pointerEvents=1;fontSize=16;" parent="wal_cVfc2_v4ucgmA8p7-15" vertex="1">
          <mxGeometry width="60" height="40" as="geometry">
            <mxRectangle width="60" height="40" as="alternateBounds" />
          </mxGeometry>
        </mxCell>
        <mxCell id="wal_cVfc2_v4ucgmA8p7-17" value="" style="shape=partialRectangle;html=1;whiteSpace=wrap;connectable=0;strokeColor=inherit;overflow=hidden;fillColor=none;top=0;left=0;bottom=0;right=0;pointerEvents=1;fontSize=16;" parent="wal_cVfc2_v4ucgmA8p7-15" vertex="1">
          <mxGeometry x="60" width="60" height="40" as="geometry">
            <mxRectangle width="60" height="40" as="alternateBounds" />
          </mxGeometry>
        </mxCell>
        <mxCell id="wal_cVfc2_v4ucgmA8p7-18" value="" style="shape=partialRectangle;html=1;whiteSpace=wrap;connectable=0;strokeColor=#6c8ebf;overflow=hidden;fillColor=#dae8fc;top=0;left=0;bottom=0;right=0;pointerEvents=1;fontSize=16;" parent="wal_cVfc2_v4ucgmA8p7-15" vertex="1">
          <mxGeometry x="120" width="60" height="40" as="geometry">
            <mxRectangle width="60" height="40" as="alternateBounds" />
          </mxGeometry>
        </mxCell>
        <mxCell id="wal_cVfc2_v4ucgmA8p7-19" value="" style="shape=tableRow;horizontal=0;startSize=0;swimlaneHead=0;swimlaneBody=0;strokeColor=inherit;top=0;left=0;bottom=0;right=0;collapsible=0;dropTarget=0;fillColor=none;points=[[0,0.5],[1,0.5]];portConstraint=eastwest;fontSize=16;" parent="wal_cVfc2_v4ucgmA8p7-14" vertex="1">
          <mxGeometry y="40" width="180" height="40" as="geometry" />
        </mxCell>
        <mxCell id="wal_cVfc2_v4ucgmA8p7-20" value="" style="shape=partialRectangle;html=1;whiteSpace=wrap;connectable=0;strokeColor=inherit;overflow=hidden;fillColor=none;top=0;left=0;bottom=0;right=0;pointerEvents=1;fontSize=16;" parent="wal_cVfc2_v4ucgmA8p7-19" vertex="1">
          <mxGeometry width="60" height="40" as="geometry">
            <mxRectangle width="60" height="40" as="alternateBounds" />
          </mxGeometry>
        </mxCell>
        <mxCell id="wal_cVfc2_v4ucgmA8p7-21" value="" style="shape=partialRectangle;html=1;whiteSpace=wrap;connectable=0;strokeColor=#6c8ebf;overflow=hidden;fillColor=#dae8fc;top=0;left=0;bottom=0;right=0;pointerEvents=1;fontSize=16;" parent="wal_cVfc2_v4ucgmA8p7-19" vertex="1">
          <mxGeometry x="60" width="60" height="40" as="geometry">
            <mxRectangle width="60" height="40" as="alternateBounds" />
          </mxGeometry>
        </mxCell>
        <mxCell id="wal_cVfc2_v4ucgmA8p7-22" value="" style="shape=partialRectangle;html=1;whiteSpace=wrap;connectable=0;strokeColor=inherit;overflow=hidden;fillColor=none;top=0;left=0;bottom=0;right=0;pointerEvents=1;fontSize=16;" parent="wal_cVfc2_v4ucgmA8p7-19" vertex="1">
          <mxGeometry x="120" width="60" height="40" as="geometry">
            <mxRectangle width="60" height="40" as="alternateBounds" />
          </mxGeometry>
        </mxCell>
        <mxCell id="wal_cVfc2_v4ucgmA8p7-23" value="" style="shape=tableRow;horizontal=0;startSize=0;swimlaneHead=0;swimlaneBody=0;strokeColor=inherit;top=0;left=0;bottom=0;right=0;collapsible=0;dropTarget=0;fillColor=none;points=[[0,0.5],[1,0.5]];portConstraint=eastwest;fontSize=16;" parent="wal_cVfc2_v4ucgmA8p7-14" vertex="1">
          <mxGeometry y="80" width="180" height="40" as="geometry" />
        </mxCell>
        <mxCell id="wal_cVfc2_v4ucgmA8p7-24" value="" style="shape=partialRectangle;html=1;whiteSpace=wrap;connectable=0;strokeColor=#6c8ebf;overflow=hidden;fillColor=#dae8fc;top=0;left=0;bottom=0;right=0;pointerEvents=1;fontSize=16;" parent="wal_cVfc2_v4ucgmA8p7-23" vertex="1">
          <mxGeometry width="60" height="40" as="geometry">
            <mxRectangle width="60" height="40" as="alternateBounds" />
          </mxGeometry>
        </mxCell>
        <mxCell id="wal_cVfc2_v4ucgmA8p7-25" value="" style="shape=partialRectangle;html=1;whiteSpace=wrap;connectable=0;strokeColor=inherit;overflow=hidden;fillColor=none;top=0;left=0;bottom=0;right=0;pointerEvents=1;fontSize=16;" parent="wal_cVfc2_v4ucgmA8p7-23" vertex="1">
          <mxGeometry x="60" width="60" height="40" as="geometry">
            <mxRectangle width="60" height="40" as="alternateBounds" />
          </mxGeometry>
        </mxCell>
        <mxCell id="wal_cVfc2_v4ucgmA8p7-26" value="" style="shape=partialRectangle;html=1;whiteSpace=wrap;connectable=0;strokeColor=#6c8ebf;overflow=hidden;fillColor=#dae8fc;top=0;left=0;bottom=0;right=0;pointerEvents=1;fontSize=16;" parent="wal_cVfc2_v4ucgmA8p7-23" vertex="1">
          <mxGeometry x="120" width="60" height="40" as="geometry">
            <mxRectangle width="60" height="40" as="alternateBounds" />
          </mxGeometry>
        </mxCell>
        <mxCell id="wal_cVfc2_v4ucgmA8p7-40" value="" style="shape=table;startSize=0;container=1;collapsible=0;childLayout=tableLayout;fontSize=16;" parent="1" vertex="1">
          <mxGeometry x="760" y="1740" width="180" height="120" as="geometry" />
        </mxCell>
        <mxCell id="wal_cVfc2_v4ucgmA8p7-41" value="" style="shape=tableRow;horizontal=0;startSize=0;swimlaneHead=0;swimlaneBody=0;strokeColor=inherit;top=0;left=0;bottom=0;right=0;collapsible=0;dropTarget=0;fillColor=none;points=[[0,0.5],[1,0.5]];portConstraint=eastwest;fontSize=16;" parent="wal_cVfc2_v4ucgmA8p7-40" vertex="1">
          <mxGeometry width="180" height="40" as="geometry" />
        </mxCell>
        <mxCell id="wal_cVfc2_v4ucgmA8p7-42" value="" style="shape=partialRectangle;html=1;whiteSpace=wrap;connectable=0;strokeColor=#6c8ebf;overflow=hidden;fillColor=#dae8fc;top=0;left=0;bottom=0;right=0;pointerEvents=1;fontSize=16;" parent="wal_cVfc2_v4ucgmA8p7-41" vertex="1">
          <mxGeometry width="60" height="40" as="geometry">
            <mxRectangle width="60" height="40" as="alternateBounds" />
          </mxGeometry>
        </mxCell>
        <mxCell id="wal_cVfc2_v4ucgmA8p7-43" value="" style="shape=partialRectangle;html=1;whiteSpace=wrap;connectable=0;strokeColor=inherit;overflow=hidden;fillColor=none;top=0;left=0;bottom=0;right=0;pointerEvents=1;fontSize=16;" parent="wal_cVfc2_v4ucgmA8p7-41" vertex="1">
          <mxGeometry x="60" width="60" height="40" as="geometry">
            <mxRectangle width="60" height="40" as="alternateBounds" />
          </mxGeometry>
        </mxCell>
        <mxCell id="wal_cVfc2_v4ucgmA8p7-44" value="" style="shape=partialRectangle;html=1;whiteSpace=wrap;connectable=0;strokeColor=#6c8ebf;overflow=hidden;fillColor=#dae8fc;top=0;left=0;bottom=0;right=0;pointerEvents=1;fontSize=16;" parent="wal_cVfc2_v4ucgmA8p7-41" vertex="1">
          <mxGeometry x="120" width="60" height="40" as="geometry">
            <mxRectangle width="60" height="40" as="alternateBounds" />
          </mxGeometry>
        </mxCell>
        <mxCell id="wal_cVfc2_v4ucgmA8p7-45" value="" style="shape=tableRow;horizontal=0;startSize=0;swimlaneHead=0;swimlaneBody=0;strokeColor=inherit;top=0;left=0;bottom=0;right=0;collapsible=0;dropTarget=0;fillColor=none;points=[[0,0.5],[1,0.5]];portConstraint=eastwest;fontSize=16;" parent="wal_cVfc2_v4ucgmA8p7-40" vertex="1">
          <mxGeometry y="40" width="180" height="40" as="geometry" />
        </mxCell>
        <mxCell id="wal_cVfc2_v4ucgmA8p7-46" value="" style="shape=partialRectangle;html=1;whiteSpace=wrap;connectable=0;strokeColor=inherit;overflow=hidden;fillColor=none;top=0;left=0;bottom=0;right=0;pointerEvents=1;fontSize=16;" parent="wal_cVfc2_v4ucgmA8p7-45" vertex="1">
          <mxGeometry width="60" height="40" as="geometry">
            <mxRectangle width="60" height="40" as="alternateBounds" />
          </mxGeometry>
        </mxCell>
        <mxCell id="wal_cVfc2_v4ucgmA8p7-47" value="" style="shape=partialRectangle;html=1;whiteSpace=wrap;connectable=0;strokeColor=#6c8ebf;overflow=hidden;fillColor=#dae8fc;top=0;left=0;bottom=0;right=0;pointerEvents=1;fontSize=16;" parent="wal_cVfc2_v4ucgmA8p7-45" vertex="1">
          <mxGeometry x="60" width="60" height="40" as="geometry">
            <mxRectangle width="60" height="40" as="alternateBounds" />
          </mxGeometry>
        </mxCell>
        <mxCell id="wal_cVfc2_v4ucgmA8p7-48" value="" style="shape=partialRectangle;html=1;whiteSpace=wrap;connectable=0;strokeColor=inherit;overflow=hidden;fillColor=none;top=0;left=0;bottom=0;right=0;pointerEvents=1;fontSize=16;" parent="wal_cVfc2_v4ucgmA8p7-45" vertex="1">
          <mxGeometry x="120" width="60" height="40" as="geometry">
            <mxRectangle width="60" height="40" as="alternateBounds" />
          </mxGeometry>
        </mxCell>
        <mxCell id="wal_cVfc2_v4ucgmA8p7-49" value="" style="shape=tableRow;horizontal=0;startSize=0;swimlaneHead=0;swimlaneBody=0;strokeColor=inherit;top=0;left=0;bottom=0;right=0;collapsible=0;dropTarget=0;fillColor=none;points=[[0,0.5],[1,0.5]];portConstraint=eastwest;fontSize=16;" parent="wal_cVfc2_v4ucgmA8p7-40" vertex="1">
          <mxGeometry y="80" width="180" height="40" as="geometry" />
        </mxCell>
        <mxCell id="wal_cVfc2_v4ucgmA8p7-50" value="" style="shape=partialRectangle;html=1;whiteSpace=wrap;connectable=0;strokeColor=#6c8ebf;overflow=hidden;fillColor=#dae8fc;top=0;left=0;bottom=0;right=0;pointerEvents=1;fontSize=16;" parent="wal_cVfc2_v4ucgmA8p7-49" vertex="1">
          <mxGeometry width="60" height="40" as="geometry">
            <mxRectangle width="60" height="40" as="alternateBounds" />
          </mxGeometry>
        </mxCell>
        <mxCell id="wal_cVfc2_v4ucgmA8p7-51" value="" style="shape=partialRectangle;html=1;whiteSpace=wrap;connectable=0;strokeColor=inherit;overflow=hidden;fillColor=none;top=0;left=0;bottom=0;right=0;pointerEvents=1;fontSize=16;" parent="wal_cVfc2_v4ucgmA8p7-49" vertex="1">
          <mxGeometry x="60" width="60" height="40" as="geometry">
            <mxRectangle width="60" height="40" as="alternateBounds" />
          </mxGeometry>
        </mxCell>
        <mxCell id="wal_cVfc2_v4ucgmA8p7-52" value="" style="shape=partialRectangle;html=1;whiteSpace=wrap;connectable=0;strokeColor=#6c8ebf;overflow=hidden;fillColor=#dae8fc;top=0;left=0;bottom=0;right=0;pointerEvents=1;fontSize=16;" parent="wal_cVfc2_v4ucgmA8p7-49" vertex="1">
          <mxGeometry x="120" width="60" height="40" as="geometry">
            <mxRectangle width="60" height="40" as="alternateBounds" />
          </mxGeometry>
        </mxCell>
        <mxCell id="wal_cVfc2_v4ucgmA8p7-53" value="" style="shape=table;startSize=0;container=1;collapsible=0;childLayout=tableLayout;fontSize=16;fillColor=#d5e8d4;strokeColor=#82b366;" parent="1" vertex="1">
          <mxGeometry x="157.5" y="1740" width="180" height="120" as="geometry" />
        </mxCell>
        <mxCell id="wal_cVfc2_v4ucgmA8p7-54" value="" style="shape=tableRow;horizontal=0;startSize=0;swimlaneHead=0;swimlaneBody=0;strokeColor=inherit;top=0;left=0;bottom=0;right=0;collapsible=0;dropTarget=0;fillColor=none;points=[[0,0.5],[1,0.5]];portConstraint=eastwest;fontSize=16;" parent="wal_cVfc2_v4ucgmA8p7-53" vertex="1">
          <mxGeometry width="180" height="40" as="geometry" />
        </mxCell>
        <mxCell id="wal_cVfc2_v4ucgmA8p7-55" value="" style="shape=partialRectangle;html=1;whiteSpace=wrap;connectable=0;strokeColor=#6c8ebf;overflow=hidden;fillColor=#dae8fc;top=0;left=0;bottom=0;right=0;pointerEvents=1;fontSize=16;" parent="wal_cVfc2_v4ucgmA8p7-54" vertex="1">
          <mxGeometry width="60" height="40" as="geometry">
            <mxRectangle width="60" height="40" as="alternateBounds" />
          </mxGeometry>
        </mxCell>
        <mxCell id="wal_cVfc2_v4ucgmA8p7-56" value="" style="shape=partialRectangle;html=1;whiteSpace=wrap;connectable=0;strokeColor=inherit;overflow=hidden;fillColor=none;top=0;left=0;bottom=0;right=0;pointerEvents=1;fontSize=16;" parent="wal_cVfc2_v4ucgmA8p7-54" vertex="1">
          <mxGeometry x="60" width="60" height="40" as="geometry">
            <mxRectangle width="60" height="40" as="alternateBounds" />
          </mxGeometry>
        </mxCell>
        <mxCell id="wal_cVfc2_v4ucgmA8p7-57" value="" style="shape=partialRectangle;html=1;whiteSpace=wrap;connectable=0;strokeColor=#6c8ebf;overflow=hidden;fillColor=#dae8fc;top=0;left=0;bottom=0;right=0;pointerEvents=1;fontSize=16;" parent="wal_cVfc2_v4ucgmA8p7-54" vertex="1">
          <mxGeometry x="120" width="60" height="40" as="geometry">
            <mxRectangle width="60" height="40" as="alternateBounds" />
          </mxGeometry>
        </mxCell>
        <mxCell id="wal_cVfc2_v4ucgmA8p7-58" value="" style="shape=tableRow;horizontal=0;startSize=0;swimlaneHead=0;swimlaneBody=0;strokeColor=inherit;top=0;left=0;bottom=0;right=0;collapsible=0;dropTarget=0;fillColor=none;points=[[0,0.5],[1,0.5]];portConstraint=eastwest;fontSize=16;" parent="wal_cVfc2_v4ucgmA8p7-53" vertex="1">
          <mxGeometry y="40" width="180" height="40" as="geometry" />
        </mxCell>
        <mxCell id="wal_cVfc2_v4ucgmA8p7-59" value="" style="shape=partialRectangle;html=1;whiteSpace=wrap;connectable=0;strokeColor=inherit;overflow=hidden;fillColor=none;top=0;left=0;bottom=0;right=0;pointerEvents=1;fontSize=16;" parent="wal_cVfc2_v4ucgmA8p7-58" vertex="1">
          <mxGeometry width="60" height="40" as="geometry">
            <mxRectangle width="60" height="40" as="alternateBounds" />
          </mxGeometry>
        </mxCell>
        <mxCell id="wal_cVfc2_v4ucgmA8p7-60" value="" style="shape=partialRectangle;html=1;whiteSpace=wrap;connectable=0;strokeColor=#6c8ebf;overflow=hidden;fillColor=#dae8fc;top=0;left=0;bottom=0;right=0;pointerEvents=1;fontSize=16;" parent="wal_cVfc2_v4ucgmA8p7-58" vertex="1">
          <mxGeometry x="60" width="60" height="40" as="geometry">
            <mxRectangle width="60" height="40" as="alternateBounds" />
          </mxGeometry>
        </mxCell>
        <mxCell id="wal_cVfc2_v4ucgmA8p7-61" value="" style="shape=partialRectangle;html=1;whiteSpace=wrap;connectable=0;strokeColor=inherit;overflow=hidden;fillColor=none;top=0;left=0;bottom=0;right=0;pointerEvents=1;fontSize=16;" parent="wal_cVfc2_v4ucgmA8p7-58" vertex="1">
          <mxGeometry x="120" width="60" height="40" as="geometry">
            <mxRectangle width="60" height="40" as="alternateBounds" />
          </mxGeometry>
        </mxCell>
        <mxCell id="wal_cVfc2_v4ucgmA8p7-62" value="" style="shape=tableRow;horizontal=0;startSize=0;swimlaneHead=0;swimlaneBody=0;strokeColor=inherit;top=0;left=0;bottom=0;right=0;collapsible=0;dropTarget=0;fillColor=none;points=[[0,0.5],[1,0.5]];portConstraint=eastwest;fontSize=16;" parent="wal_cVfc2_v4ucgmA8p7-53" vertex="1">
          <mxGeometry y="80" width="180" height="40" as="geometry" />
        </mxCell>
        <mxCell id="wal_cVfc2_v4ucgmA8p7-63" value="" style="shape=partialRectangle;html=1;whiteSpace=wrap;connectable=0;strokeColor=#6c8ebf;overflow=hidden;fillColor=#dae8fc;top=0;left=0;bottom=0;right=0;pointerEvents=1;fontSize=16;" parent="wal_cVfc2_v4ucgmA8p7-62" vertex="1">
          <mxGeometry width="60" height="40" as="geometry">
            <mxRectangle width="60" height="40" as="alternateBounds" />
          </mxGeometry>
        </mxCell>
        <mxCell id="wal_cVfc2_v4ucgmA8p7-64" value="" style="shape=partialRectangle;html=1;whiteSpace=wrap;connectable=0;strokeColor=inherit;overflow=hidden;fillColor=none;top=0;left=0;bottom=0;right=0;pointerEvents=1;fontSize=16;" parent="wal_cVfc2_v4ucgmA8p7-62" vertex="1">
          <mxGeometry x="60" width="60" height="40" as="geometry">
            <mxRectangle width="60" height="40" as="alternateBounds" />
          </mxGeometry>
        </mxCell>
        <mxCell id="wal_cVfc2_v4ucgmA8p7-65" value="" style="shape=partialRectangle;html=1;whiteSpace=wrap;connectable=0;strokeColor=#6c8ebf;overflow=hidden;fillColor=#dae8fc;top=0;left=0;bottom=0;right=0;pointerEvents=1;fontSize=16;" parent="wal_cVfc2_v4ucgmA8p7-62" vertex="1">
          <mxGeometry x="120" width="60" height="40" as="geometry">
            <mxRectangle width="60" height="40" as="alternateBounds" />
          </mxGeometry>
        </mxCell>
        <mxCell id="wal_cVfc2_v4ucgmA8p7-66" value="" style="shape=table;startSize=0;container=1;collapsible=0;childLayout=tableLayout;fontSize=16;" parent="1" vertex="1">
          <mxGeometry x="337.5" y="1740" width="180" height="120" as="geometry" />
        </mxCell>
        <mxCell id="wal_cVfc2_v4ucgmA8p7-67" value="" style="shape=tableRow;horizontal=0;startSize=0;swimlaneHead=0;swimlaneBody=0;strokeColor=inherit;top=0;left=0;bottom=0;right=0;collapsible=0;dropTarget=0;fillColor=none;points=[[0,0.5],[1,0.5]];portConstraint=eastwest;fontSize=16;" parent="wal_cVfc2_v4ucgmA8p7-66" vertex="1">
          <mxGeometry width="180" height="40" as="geometry" />
        </mxCell>
        <mxCell id="wal_cVfc2_v4ucgmA8p7-68" value="" style="shape=partialRectangle;html=1;whiteSpace=wrap;connectable=0;strokeColor=#6c8ebf;overflow=hidden;fillColor=#dae8fc;top=0;left=0;bottom=0;right=0;pointerEvents=1;fontSize=16;" parent="wal_cVfc2_v4ucgmA8p7-67" vertex="1">
          <mxGeometry width="60" height="40" as="geometry">
            <mxRectangle width="60" height="40" as="alternateBounds" />
          </mxGeometry>
        </mxCell>
        <mxCell id="wal_cVfc2_v4ucgmA8p7-69" value="" style="shape=partialRectangle;html=1;whiteSpace=wrap;connectable=0;strokeColor=#82b366;overflow=hidden;fillColor=#d5e8d4;top=0;left=0;bottom=0;right=0;pointerEvents=1;fontSize=16;" parent="wal_cVfc2_v4ucgmA8p7-67" vertex="1">
          <mxGeometry x="60" width="60" height="40" as="geometry">
            <mxRectangle width="60" height="40" as="alternateBounds" />
          </mxGeometry>
        </mxCell>
        <mxCell id="wal_cVfc2_v4ucgmA8p7-70" value="" style="shape=partialRectangle;html=1;whiteSpace=wrap;connectable=0;strokeColor=#6c8ebf;overflow=hidden;fillColor=#dae8fc;top=0;left=0;bottom=0;right=0;pointerEvents=1;fontSize=16;" parent="wal_cVfc2_v4ucgmA8p7-67" vertex="1">
          <mxGeometry x="120" width="60" height="40" as="geometry">
            <mxRectangle width="60" height="40" as="alternateBounds" />
          </mxGeometry>
        </mxCell>
        <mxCell id="wal_cVfc2_v4ucgmA8p7-71" value="" style="shape=tableRow;horizontal=0;startSize=0;swimlaneHead=0;swimlaneBody=0;strokeColor=inherit;top=0;left=0;bottom=0;right=0;collapsible=0;dropTarget=0;fillColor=none;points=[[0,0.5],[1,0.5]];portConstraint=eastwest;fontSize=16;" parent="wal_cVfc2_v4ucgmA8p7-66" vertex="1">
          <mxGeometry y="40" width="180" height="40" as="geometry" />
        </mxCell>
        <mxCell id="wal_cVfc2_v4ucgmA8p7-72" value="" style="shape=partialRectangle;html=1;whiteSpace=wrap;connectable=0;strokeColor=inherit;overflow=hidden;fillColor=none;top=0;left=0;bottom=0;right=0;pointerEvents=1;fontSize=16;" parent="wal_cVfc2_v4ucgmA8p7-71" vertex="1">
          <mxGeometry width="60" height="40" as="geometry">
            <mxRectangle width="60" height="40" as="alternateBounds" />
          </mxGeometry>
        </mxCell>
        <mxCell id="wal_cVfc2_v4ucgmA8p7-73" value="" style="shape=partialRectangle;html=1;whiteSpace=wrap;connectable=0;strokeColor=#6c8ebf;overflow=hidden;fillColor=#dae8fc;top=0;left=0;bottom=0;right=0;pointerEvents=1;fontSize=16;" parent="wal_cVfc2_v4ucgmA8p7-71" vertex="1">
          <mxGeometry x="60" width="60" height="40" as="geometry">
            <mxRectangle width="60" height="40" as="alternateBounds" />
          </mxGeometry>
        </mxCell>
        <mxCell id="wal_cVfc2_v4ucgmA8p7-74" value="" style="shape=partialRectangle;html=1;whiteSpace=wrap;connectable=0;strokeColor=inherit;overflow=hidden;fillColor=none;top=0;left=0;bottom=0;right=0;pointerEvents=1;fontSize=16;" parent="wal_cVfc2_v4ucgmA8p7-71" vertex="1">
          <mxGeometry x="120" width="60" height="40" as="geometry">
            <mxRectangle width="60" height="40" as="alternateBounds" />
          </mxGeometry>
        </mxCell>
        <mxCell id="wal_cVfc2_v4ucgmA8p7-75" value="" style="shape=tableRow;horizontal=0;startSize=0;swimlaneHead=0;swimlaneBody=0;strokeColor=inherit;top=0;left=0;bottom=0;right=0;collapsible=0;dropTarget=0;fillColor=none;points=[[0,0.5],[1,0.5]];portConstraint=eastwest;fontSize=16;" parent="wal_cVfc2_v4ucgmA8p7-66" vertex="1">
          <mxGeometry y="80" width="180" height="40" as="geometry" />
        </mxCell>
        <mxCell id="wal_cVfc2_v4ucgmA8p7-76" value="" style="shape=partialRectangle;html=1;whiteSpace=wrap;connectable=0;strokeColor=#6c8ebf;overflow=hidden;fillColor=#dae8fc;top=0;left=0;bottom=0;right=0;pointerEvents=1;fontSize=16;" parent="wal_cVfc2_v4ucgmA8p7-75" vertex="1">
          <mxGeometry width="60" height="40" as="geometry">
            <mxRectangle width="60" height="40" as="alternateBounds" />
          </mxGeometry>
        </mxCell>
        <mxCell id="wal_cVfc2_v4ucgmA8p7-77" value="" style="shape=partialRectangle;html=1;whiteSpace=wrap;connectable=0;strokeColor=inherit;overflow=hidden;fillColor=none;top=0;left=0;bottom=0;right=0;pointerEvents=1;fontSize=16;" parent="wal_cVfc2_v4ucgmA8p7-75" vertex="1">
          <mxGeometry x="60" width="60" height="40" as="geometry">
            <mxRectangle width="60" height="40" as="alternateBounds" />
          </mxGeometry>
        </mxCell>
        <mxCell id="wal_cVfc2_v4ucgmA8p7-78" value="" style="shape=partialRectangle;html=1;whiteSpace=wrap;connectable=0;strokeColor=#6c8ebf;overflow=hidden;fillColor=#dae8fc;top=0;left=0;bottom=0;right=0;pointerEvents=1;fontSize=16;" parent="wal_cVfc2_v4ucgmA8p7-75" vertex="1">
          <mxGeometry x="120" width="60" height="40" as="geometry">
            <mxRectangle width="60" height="40" as="alternateBounds" />
          </mxGeometry>
        </mxCell>
        <mxCell id="wal_cVfc2_v4ucgmA8p7-79" value="回收后" style="text;strokeColor=none;fillColor=none;html=1;fontSize=24;fontStyle=1;verticalAlign=middle;align=center;" parent="1" vertex="1">
          <mxGeometry x="695" y="1680" width="100" height="40" as="geometry" />
        </mxCell>
        <mxCell id="wal_cVfc2_v4ucgmA8p7-80" value="回收前" style="text;strokeColor=none;fillColor=none;html=1;fontSize=24;fontStyle=1;verticalAlign=middle;align=center;" parent="1" vertex="1">
          <mxGeometry x="290" y="1680" width="100" height="40" as="geometry" />
        </mxCell>
        <mxCell id="wal_cVfc2_v4ucgmA8p7-81" value="" style="shape=table;startSize=0;container=1;collapsible=0;childLayout=tableLayout;fontSize=16;" parent="1" vertex="1">
          <mxGeometry x="572.5" y="1970" width="180" height="120" as="geometry" />
        </mxCell>
        <mxCell id="wal_cVfc2_v4ucgmA8p7-82" value="" style="shape=tableRow;horizontal=0;startSize=0;swimlaneHead=0;swimlaneBody=0;strokeColor=inherit;top=0;left=0;bottom=0;right=0;collapsible=0;dropTarget=0;fillColor=none;points=[[0,0.5],[1,0.5]];portConstraint=eastwest;fontSize=16;" parent="wal_cVfc2_v4ucgmA8p7-81" vertex="1">
          <mxGeometry width="180" height="40" as="geometry" />
        </mxCell>
        <mxCell id="wal_cVfc2_v4ucgmA8p7-83" value="" style="shape=partialRectangle;html=1;whiteSpace=wrap;connectable=0;strokeColor=#6c8ebf;overflow=hidden;fillColor=#dae8fc;top=0;left=0;bottom=0;right=0;pointerEvents=1;fontSize=16;" parent="wal_cVfc2_v4ucgmA8p7-82" vertex="1">
          <mxGeometry width="60" height="40" as="geometry">
            <mxRectangle width="60" height="40" as="alternateBounds" />
          </mxGeometry>
        </mxCell>
        <mxCell id="wal_cVfc2_v4ucgmA8p7-84" value="" style="shape=partialRectangle;html=1;whiteSpace=wrap;connectable=0;strokeColor=#6c8ebf;overflow=hidden;fillColor=#dae8fc;top=0;left=0;bottom=0;right=0;pointerEvents=1;fontSize=16;" parent="wal_cVfc2_v4ucgmA8p7-82" vertex="1">
          <mxGeometry x="60" width="60" height="40" as="geometry">
            <mxRectangle width="60" height="40" as="alternateBounds" />
          </mxGeometry>
        </mxCell>
        <mxCell id="wal_cVfc2_v4ucgmA8p7-85" value="" style="shape=partialRectangle;html=1;whiteSpace=wrap;connectable=0;strokeColor=#6c8ebf;overflow=hidden;fillColor=#dae8fc;top=0;left=0;bottom=0;right=0;pointerEvents=1;fontSize=16;" parent="wal_cVfc2_v4ucgmA8p7-82" vertex="1">
          <mxGeometry x="120" width="60" height="40" as="geometry">
            <mxRectangle width="60" height="40" as="alternateBounds" />
          </mxGeometry>
        </mxCell>
        <mxCell id="wal_cVfc2_v4ucgmA8p7-86" value="" style="shape=tableRow;horizontal=0;startSize=0;swimlaneHead=0;swimlaneBody=0;strokeColor=inherit;top=0;left=0;bottom=0;right=0;collapsible=0;dropTarget=0;fillColor=none;points=[[0,0.5],[1,0.5]];portConstraint=eastwest;fontSize=16;" parent="wal_cVfc2_v4ucgmA8p7-81" vertex="1">
          <mxGeometry y="40" width="180" height="40" as="geometry" />
        </mxCell>
        <mxCell id="wal_cVfc2_v4ucgmA8p7-87" value="" style="shape=partialRectangle;html=1;whiteSpace=wrap;connectable=0;strokeColor=#6c8ebf;overflow=hidden;fillColor=#dae8fc;top=0;left=0;bottom=0;right=0;pointerEvents=1;fontSize=16;" parent="wal_cVfc2_v4ucgmA8p7-86" vertex="1">
          <mxGeometry width="60" height="40" as="geometry">
            <mxRectangle width="60" height="40" as="alternateBounds" />
          </mxGeometry>
        </mxCell>
        <mxCell id="wal_cVfc2_v4ucgmA8p7-88" value="" style="shape=partialRectangle;html=1;whiteSpace=wrap;connectable=0;strokeColor=#6c8ebf;overflow=hidden;fillColor=#dae8fc;top=0;left=0;bottom=0;right=0;pointerEvents=1;fontSize=16;" parent="wal_cVfc2_v4ucgmA8p7-86" vertex="1">
          <mxGeometry x="60" width="60" height="40" as="geometry">
            <mxRectangle width="60" height="40" as="alternateBounds" />
          </mxGeometry>
        </mxCell>
        <mxCell id="wal_cVfc2_v4ucgmA8p7-89" value="" style="shape=partialRectangle;html=1;whiteSpace=wrap;connectable=0;strokeColor=inherit;overflow=hidden;fillColor=none;top=0;left=0;bottom=0;right=0;pointerEvents=1;fontSize=16;" parent="wal_cVfc2_v4ucgmA8p7-86" vertex="1">
          <mxGeometry x="120" width="60" height="40" as="geometry">
            <mxRectangle width="60" height="40" as="alternateBounds" />
          </mxGeometry>
        </mxCell>
        <mxCell id="wal_cVfc2_v4ucgmA8p7-90" value="" style="shape=tableRow;horizontal=0;startSize=0;swimlaneHead=0;swimlaneBody=0;strokeColor=inherit;top=0;left=0;bottom=0;right=0;collapsible=0;dropTarget=0;fillColor=none;points=[[0,0.5],[1,0.5]];portConstraint=eastwest;fontSize=16;" parent="wal_cVfc2_v4ucgmA8p7-81" vertex="1">
          <mxGeometry y="80" width="180" height="40" as="geometry" />
        </mxCell>
        <mxCell id="wal_cVfc2_v4ucgmA8p7-91" value="" style="shape=partialRectangle;html=1;whiteSpace=wrap;connectable=0;strokeColor=#6c8ebf;overflow=hidden;fillColor=#dae8fc;top=0;left=0;bottom=0;right=0;pointerEvents=1;fontSize=16;" parent="wal_cVfc2_v4ucgmA8p7-90" vertex="1">
          <mxGeometry width="60" height="40" as="geometry">
            <mxRectangle width="60" height="40" as="alternateBounds" />
          </mxGeometry>
        </mxCell>
        <mxCell id="wal_cVfc2_v4ucgmA8p7-92" value="" style="shape=partialRectangle;html=1;whiteSpace=wrap;connectable=0;strokeColor=#6c8ebf;overflow=hidden;fillColor=#dae8fc;top=0;left=0;bottom=0;right=0;pointerEvents=1;fontSize=16;" parent="wal_cVfc2_v4ucgmA8p7-90" vertex="1">
          <mxGeometry x="60" width="60" height="40" as="geometry">
            <mxRectangle width="60" height="40" as="alternateBounds" />
          </mxGeometry>
        </mxCell>
        <mxCell id="wal_cVfc2_v4ucgmA8p7-93" value="" style="shape=partialRectangle;html=1;whiteSpace=wrap;connectable=0;strokeColor=#6c8ebf;overflow=hidden;fillColor=#dae8fc;top=0;left=0;bottom=0;right=0;pointerEvents=1;fontSize=16;" parent="wal_cVfc2_v4ucgmA8p7-90" vertex="1">
          <mxGeometry x="120" width="60" height="40" as="geometry">
            <mxRectangle width="60" height="40" as="alternateBounds" />
          </mxGeometry>
        </mxCell>
        <mxCell id="wal_cVfc2_v4ucgmA8p7-94" value="" style="shape=table;startSize=0;container=1;collapsible=0;childLayout=tableLayout;fontSize=16;" parent="1" vertex="1">
          <mxGeometry x="752.5" y="1970" width="180" height="120" as="geometry" />
        </mxCell>
        <mxCell id="wal_cVfc2_v4ucgmA8p7-95" value="" style="shape=tableRow;horizontal=0;startSize=0;swimlaneHead=0;swimlaneBody=0;strokeColor=inherit;top=0;left=0;bottom=0;right=0;collapsible=0;dropTarget=0;fillColor=none;points=[[0,0.5],[1,0.5]];portConstraint=eastwest;fontSize=16;" parent="wal_cVfc2_v4ucgmA8p7-94" vertex="1">
          <mxGeometry width="180" height="40" as="geometry" />
        </mxCell>
        <mxCell id="wal_cVfc2_v4ucgmA8p7-96" value="" style="shape=partialRectangle;html=1;whiteSpace=wrap;connectable=0;strokeColor=#6c8ebf;overflow=hidden;fillColor=#dae8fc;top=0;left=0;bottom=0;right=0;pointerEvents=1;fontSize=16;" parent="wal_cVfc2_v4ucgmA8p7-95" vertex="1">
          <mxGeometry width="60" height="40" as="geometry">
            <mxRectangle width="60" height="40" as="alternateBounds" />
          </mxGeometry>
        </mxCell>
        <mxCell id="wal_cVfc2_v4ucgmA8p7-97" value="" style="shape=partialRectangle;html=1;whiteSpace=wrap;connectable=0;strokeColor=inherit;overflow=hidden;fillColor=none;top=0;left=0;bottom=0;right=0;pointerEvents=1;fontSize=16;" parent="wal_cVfc2_v4ucgmA8p7-95" vertex="1">
          <mxGeometry x="60" width="60" height="40" as="geometry">
            <mxRectangle width="60" height="40" as="alternateBounds" />
          </mxGeometry>
        </mxCell>
        <mxCell id="wal_cVfc2_v4ucgmA8p7-98" value="" style="shape=partialRectangle;html=1;whiteSpace=wrap;connectable=0;strokeColor=#6c8ebf;overflow=hidden;fillColor=#dae8fc;top=0;left=0;bottom=0;right=0;pointerEvents=1;fontSize=16;" parent="wal_cVfc2_v4ucgmA8p7-95" vertex="1">
          <mxGeometry x="120" width="60" height="40" as="geometry">
            <mxRectangle width="60" height="40" as="alternateBounds" />
          </mxGeometry>
        </mxCell>
        <mxCell id="wal_cVfc2_v4ucgmA8p7-99" value="" style="shape=tableRow;horizontal=0;startSize=0;swimlaneHead=0;swimlaneBody=0;strokeColor=inherit;top=0;left=0;bottom=0;right=0;collapsible=0;dropTarget=0;fillColor=none;points=[[0,0.5],[1,0.5]];portConstraint=eastwest;fontSize=16;" parent="wal_cVfc2_v4ucgmA8p7-94" vertex="1">
          <mxGeometry y="40" width="180" height="40" as="geometry" />
        </mxCell>
        <mxCell id="wal_cVfc2_v4ucgmA8p7-100" value="" style="shape=partialRectangle;html=1;whiteSpace=wrap;connectable=0;strokeColor=inherit;overflow=hidden;fillColor=none;top=0;left=0;bottom=0;right=0;pointerEvents=1;fontSize=16;" parent="wal_cVfc2_v4ucgmA8p7-99" vertex="1">
          <mxGeometry width="60" height="40" as="geometry">
            <mxRectangle width="60" height="40" as="alternateBounds" />
          </mxGeometry>
        </mxCell>
        <mxCell id="wal_cVfc2_v4ucgmA8p7-101" value="" style="shape=partialRectangle;html=1;whiteSpace=wrap;connectable=0;overflow=hidden;top=0;left=0;bottom=0;right=0;pointerEvents=1;fontSize=16;" parent="wal_cVfc2_v4ucgmA8p7-99" vertex="1">
          <mxGeometry x="60" width="60" height="40" as="geometry">
            <mxRectangle width="60" height="40" as="alternateBounds" />
          </mxGeometry>
        </mxCell>
        <mxCell id="wal_cVfc2_v4ucgmA8p7-102" value="" style="shape=partialRectangle;html=1;whiteSpace=wrap;connectable=0;strokeColor=inherit;overflow=hidden;fillColor=none;top=0;left=0;bottom=0;right=0;pointerEvents=1;fontSize=16;" parent="wal_cVfc2_v4ucgmA8p7-99" vertex="1">
          <mxGeometry x="120" width="60" height="40" as="geometry">
            <mxRectangle width="60" height="40" as="alternateBounds" />
          </mxGeometry>
        </mxCell>
        <mxCell id="wal_cVfc2_v4ucgmA8p7-103" value="" style="shape=tableRow;horizontal=0;startSize=0;swimlaneHead=0;swimlaneBody=0;top=0;left=0;bottom=0;right=0;collapsible=0;dropTarget=0;points=[[0,0.5],[1,0.5]];portConstraint=eastwest;fontSize=16;" parent="wal_cVfc2_v4ucgmA8p7-94" vertex="1">
          <mxGeometry y="80" width="180" height="40" as="geometry" />
        </mxCell>
        <mxCell id="wal_cVfc2_v4ucgmA8p7-104" value="" style="shape=partialRectangle;html=1;whiteSpace=wrap;connectable=0;strokeColor=#6c8ebf;overflow=hidden;fillColor=#dae8fc;top=0;left=0;bottom=0;right=0;pointerEvents=1;fontSize=16;" parent="wal_cVfc2_v4ucgmA8p7-103" vertex="1">
          <mxGeometry width="60" height="40" as="geometry">
            <mxRectangle width="60" height="40" as="alternateBounds" />
          </mxGeometry>
        </mxCell>
        <mxCell id="wal_cVfc2_v4ucgmA8p7-105" value="" style="shape=partialRectangle;html=1;whiteSpace=wrap;connectable=0;strokeColor=inherit;overflow=hidden;fillColor=none;top=0;left=0;bottom=0;right=0;pointerEvents=1;fontSize=16;" parent="wal_cVfc2_v4ucgmA8p7-103" vertex="1">
          <mxGeometry x="60" width="60" height="40" as="geometry">
            <mxRectangle width="60" height="40" as="alternateBounds" />
          </mxGeometry>
        </mxCell>
        <mxCell id="wal_cVfc2_v4ucgmA8p7-106" value="" style="shape=partialRectangle;html=1;whiteSpace=wrap;connectable=0;overflow=hidden;top=0;left=0;bottom=0;right=0;pointerEvents=1;fontSize=16;" parent="wal_cVfc2_v4ucgmA8p7-103" vertex="1">
          <mxGeometry x="120" width="60" height="40" as="geometry">
            <mxRectangle width="60" height="40" as="alternateBounds" />
          </mxGeometry>
        </mxCell>
        <mxCell id="wal_cVfc2_v4ucgmA8p7-107" value="" style="shape=table;startSize=0;container=1;collapsible=0;childLayout=tableLayout;fontSize=16;fillColor=#d5e8d4;strokeColor=#82b366;" parent="1" vertex="1">
          <mxGeometry x="150" y="1970" width="180" height="120" as="geometry" />
        </mxCell>
        <mxCell id="wal_cVfc2_v4ucgmA8p7-108" value="" style="shape=tableRow;horizontal=0;startSize=0;swimlaneHead=0;swimlaneBody=0;strokeColor=inherit;top=0;left=0;bottom=0;right=0;collapsible=0;dropTarget=0;fillColor=none;points=[[0,0.5],[1,0.5]];portConstraint=eastwest;fontSize=16;" parent="wal_cVfc2_v4ucgmA8p7-107" vertex="1">
          <mxGeometry width="180" height="40" as="geometry" />
        </mxCell>
        <mxCell id="wal_cVfc2_v4ucgmA8p7-109" value="" style="shape=partialRectangle;html=1;whiteSpace=wrap;connectable=0;strokeColor=#6c8ebf;overflow=hidden;fillColor=#dae8fc;top=0;left=0;bottom=0;right=0;pointerEvents=1;fontSize=16;" parent="wal_cVfc2_v4ucgmA8p7-108" vertex="1">
          <mxGeometry width="60" height="40" as="geometry">
            <mxRectangle width="60" height="40" as="alternateBounds" />
          </mxGeometry>
        </mxCell>
        <mxCell id="wal_cVfc2_v4ucgmA8p7-110" value="" style="shape=partialRectangle;html=1;whiteSpace=wrap;connectable=0;strokeColor=inherit;overflow=hidden;fillColor=none;top=0;left=0;bottom=0;right=0;pointerEvents=1;fontSize=16;" parent="wal_cVfc2_v4ucgmA8p7-108" vertex="1">
          <mxGeometry x="60" width="60" height="40" as="geometry">
            <mxRectangle width="60" height="40" as="alternateBounds" />
          </mxGeometry>
        </mxCell>
        <mxCell id="wal_cVfc2_v4ucgmA8p7-111" value="" style="shape=partialRectangle;html=1;whiteSpace=wrap;connectable=0;strokeColor=#6c8ebf;overflow=hidden;fillColor=#dae8fc;top=0;left=0;bottom=0;right=0;pointerEvents=1;fontSize=16;" parent="wal_cVfc2_v4ucgmA8p7-108" vertex="1">
          <mxGeometry x="120" width="60" height="40" as="geometry">
            <mxRectangle width="60" height="40" as="alternateBounds" />
          </mxGeometry>
        </mxCell>
        <mxCell id="wal_cVfc2_v4ucgmA8p7-112" value="" style="shape=tableRow;horizontal=0;startSize=0;swimlaneHead=0;swimlaneBody=0;strokeColor=inherit;top=0;left=0;bottom=0;right=0;collapsible=0;dropTarget=0;fillColor=none;points=[[0,0.5],[1,0.5]];portConstraint=eastwest;fontSize=16;" parent="wal_cVfc2_v4ucgmA8p7-107" vertex="1">
          <mxGeometry y="40" width="180" height="40" as="geometry" />
        </mxCell>
        <mxCell id="wal_cVfc2_v4ucgmA8p7-113" value="" style="shape=partialRectangle;html=1;whiteSpace=wrap;connectable=0;strokeColor=inherit;overflow=hidden;fillColor=none;top=0;left=0;bottom=0;right=0;pointerEvents=1;fontSize=16;" parent="wal_cVfc2_v4ucgmA8p7-112" vertex="1">
          <mxGeometry width="60" height="40" as="geometry">
            <mxRectangle width="60" height="40" as="alternateBounds" />
          </mxGeometry>
        </mxCell>
        <mxCell id="wal_cVfc2_v4ucgmA8p7-114" value="" style="shape=partialRectangle;html=1;whiteSpace=wrap;connectable=0;strokeColor=#6c8ebf;overflow=hidden;fillColor=#dae8fc;top=0;left=0;bottom=0;right=0;pointerEvents=1;fontSize=16;" parent="wal_cVfc2_v4ucgmA8p7-112" vertex="1">
          <mxGeometry x="60" width="60" height="40" as="geometry">
            <mxRectangle width="60" height="40" as="alternateBounds" />
          </mxGeometry>
        </mxCell>
        <mxCell id="wal_cVfc2_v4ucgmA8p7-115" value="" style="shape=partialRectangle;html=1;whiteSpace=wrap;connectable=0;strokeColor=inherit;overflow=hidden;fillColor=none;top=0;left=0;bottom=0;right=0;pointerEvents=1;fontSize=16;" parent="wal_cVfc2_v4ucgmA8p7-112" vertex="1">
          <mxGeometry x="120" width="60" height="40" as="geometry">
            <mxRectangle width="60" height="40" as="alternateBounds" />
          </mxGeometry>
        </mxCell>
        <mxCell id="wal_cVfc2_v4ucgmA8p7-116" value="" style="shape=tableRow;horizontal=0;startSize=0;swimlaneHead=0;swimlaneBody=0;strokeColor=inherit;top=0;left=0;bottom=0;right=0;collapsible=0;dropTarget=0;fillColor=none;points=[[0,0.5],[1,0.5]];portConstraint=eastwest;fontSize=16;" parent="wal_cVfc2_v4ucgmA8p7-107" vertex="1">
          <mxGeometry y="80" width="180" height="40" as="geometry" />
        </mxCell>
        <mxCell id="wal_cVfc2_v4ucgmA8p7-117" value="" style="shape=partialRectangle;html=1;whiteSpace=wrap;connectable=0;strokeColor=#6c8ebf;overflow=hidden;fillColor=#dae8fc;top=0;left=0;bottom=0;right=0;pointerEvents=1;fontSize=16;" parent="wal_cVfc2_v4ucgmA8p7-116" vertex="1">
          <mxGeometry width="60" height="40" as="geometry">
            <mxRectangle width="60" height="40" as="alternateBounds" />
          </mxGeometry>
        </mxCell>
        <mxCell id="wal_cVfc2_v4ucgmA8p7-118" value="" style="shape=partialRectangle;html=1;whiteSpace=wrap;connectable=0;strokeColor=inherit;overflow=hidden;fillColor=none;top=0;left=0;bottom=0;right=0;pointerEvents=1;fontSize=16;" parent="wal_cVfc2_v4ucgmA8p7-116" vertex="1">
          <mxGeometry x="60" width="60" height="40" as="geometry">
            <mxRectangle width="60" height="40" as="alternateBounds" />
          </mxGeometry>
        </mxCell>
        <mxCell id="wal_cVfc2_v4ucgmA8p7-119" value="" style="shape=partialRectangle;html=1;whiteSpace=wrap;connectable=0;strokeColor=#6c8ebf;overflow=hidden;fillColor=#dae8fc;top=0;left=0;bottom=0;right=0;pointerEvents=1;fontSize=16;" parent="wal_cVfc2_v4ucgmA8p7-116" vertex="1">
          <mxGeometry x="120" width="60" height="40" as="geometry">
            <mxRectangle width="60" height="40" as="alternateBounds" />
          </mxGeometry>
        </mxCell>
        <mxCell id="wal_cVfc2_v4ucgmA8p7-120" value="" style="shape=table;startSize=0;container=1;collapsible=0;childLayout=tableLayout;fontSize=16;" parent="1" vertex="1">
          <mxGeometry x="330" y="1970" width="180" height="120" as="geometry" />
        </mxCell>
        <mxCell id="wal_cVfc2_v4ucgmA8p7-121" value="" style="shape=tableRow;horizontal=0;startSize=0;swimlaneHead=0;swimlaneBody=0;strokeColor=inherit;top=0;left=0;bottom=0;right=0;collapsible=0;dropTarget=0;fillColor=none;points=[[0,0.5],[1,0.5]];portConstraint=eastwest;fontSize=16;" parent="wal_cVfc2_v4ucgmA8p7-120" vertex="1">
          <mxGeometry width="180" height="40" as="geometry" />
        </mxCell>
        <mxCell id="wal_cVfc2_v4ucgmA8p7-122" value="" style="shape=partialRectangle;html=1;whiteSpace=wrap;connectable=0;strokeColor=#6c8ebf;overflow=hidden;fillColor=#dae8fc;top=0;left=0;bottom=0;right=0;pointerEvents=1;fontSize=16;" parent="wal_cVfc2_v4ucgmA8p7-121" vertex="1">
          <mxGeometry width="60" height="40" as="geometry">
            <mxRectangle width="60" height="40" as="alternateBounds" />
          </mxGeometry>
        </mxCell>
        <mxCell id="wal_cVfc2_v4ucgmA8p7-123" value="" style="shape=partialRectangle;html=1;whiteSpace=wrap;connectable=0;strokeColor=#82b366;overflow=hidden;fillColor=#d5e8d4;top=0;left=0;bottom=0;right=0;pointerEvents=1;fontSize=16;" parent="wal_cVfc2_v4ucgmA8p7-121" vertex="1">
          <mxGeometry x="60" width="60" height="40" as="geometry">
            <mxRectangle width="60" height="40" as="alternateBounds" />
          </mxGeometry>
        </mxCell>
        <mxCell id="wal_cVfc2_v4ucgmA8p7-124" value="" style="shape=partialRectangle;html=1;whiteSpace=wrap;connectable=0;strokeColor=#6c8ebf;overflow=hidden;fillColor=#dae8fc;top=0;left=0;bottom=0;right=0;pointerEvents=1;fontSize=16;" parent="wal_cVfc2_v4ucgmA8p7-121" vertex="1">
          <mxGeometry x="120" width="60" height="40" as="geometry">
            <mxRectangle width="60" height="40" as="alternateBounds" />
          </mxGeometry>
        </mxCell>
        <mxCell id="wal_cVfc2_v4ucgmA8p7-125" value="" style="shape=tableRow;horizontal=0;startSize=0;swimlaneHead=0;swimlaneBody=0;strokeColor=inherit;top=0;left=0;bottom=0;right=0;collapsible=0;dropTarget=0;fillColor=none;points=[[0,0.5],[1,0.5]];portConstraint=eastwest;fontSize=16;" parent="wal_cVfc2_v4ucgmA8p7-120" vertex="1">
          <mxGeometry y="40" width="180" height="40" as="geometry" />
        </mxCell>
        <mxCell id="wal_cVfc2_v4ucgmA8p7-126" value="" style="shape=partialRectangle;html=1;whiteSpace=wrap;connectable=0;strokeColor=inherit;overflow=hidden;fillColor=none;top=0;left=0;bottom=0;right=0;pointerEvents=1;fontSize=16;" parent="wal_cVfc2_v4ucgmA8p7-125" vertex="1">
          <mxGeometry width="60" height="40" as="geometry">
            <mxRectangle width="60" height="40" as="alternateBounds" />
          </mxGeometry>
        </mxCell>
        <mxCell id="wal_cVfc2_v4ucgmA8p7-127" value="" style="shape=partialRectangle;html=1;whiteSpace=wrap;connectable=0;strokeColor=#6c8ebf;overflow=hidden;fillColor=#dae8fc;top=0;left=0;bottom=0;right=0;pointerEvents=1;fontSize=16;" parent="wal_cVfc2_v4ucgmA8p7-125" vertex="1">
          <mxGeometry x="60" width="60" height="40" as="geometry">
            <mxRectangle width="60" height="40" as="alternateBounds" />
          </mxGeometry>
        </mxCell>
        <mxCell id="wal_cVfc2_v4ucgmA8p7-128" value="" style="shape=partialRectangle;html=1;whiteSpace=wrap;connectable=0;strokeColor=inherit;overflow=hidden;fillColor=none;top=0;left=0;bottom=0;right=0;pointerEvents=1;fontSize=16;" parent="wal_cVfc2_v4ucgmA8p7-125" vertex="1">
          <mxGeometry x="120" width="60" height="40" as="geometry">
            <mxRectangle width="60" height="40" as="alternateBounds" />
          </mxGeometry>
        </mxCell>
        <mxCell id="wal_cVfc2_v4ucgmA8p7-129" value="" style="shape=tableRow;horizontal=0;startSize=0;swimlaneHead=0;swimlaneBody=0;strokeColor=inherit;top=0;left=0;bottom=0;right=0;collapsible=0;dropTarget=0;fillColor=none;points=[[0,0.5],[1,0.5]];portConstraint=eastwest;fontSize=16;" parent="wal_cVfc2_v4ucgmA8p7-120" vertex="1">
          <mxGeometry y="80" width="180" height="40" as="geometry" />
        </mxCell>
        <mxCell id="wal_cVfc2_v4ucgmA8p7-130" value="" style="shape=partialRectangle;html=1;whiteSpace=wrap;connectable=0;strokeColor=#6c8ebf;overflow=hidden;fillColor=#dae8fc;top=0;left=0;bottom=0;right=0;pointerEvents=1;fontSize=16;" parent="wal_cVfc2_v4ucgmA8p7-129" vertex="1">
          <mxGeometry width="60" height="40" as="geometry">
            <mxRectangle width="60" height="40" as="alternateBounds" />
          </mxGeometry>
        </mxCell>
        <mxCell id="wal_cVfc2_v4ucgmA8p7-131" value="" style="shape=partialRectangle;html=1;whiteSpace=wrap;connectable=0;strokeColor=inherit;overflow=hidden;fillColor=none;top=0;left=0;bottom=0;right=0;pointerEvents=1;fontSize=16;" parent="wal_cVfc2_v4ucgmA8p7-129" vertex="1">
          <mxGeometry x="60" width="60" height="40" as="geometry">
            <mxRectangle width="60" height="40" as="alternateBounds" />
          </mxGeometry>
        </mxCell>
        <mxCell id="wal_cVfc2_v4ucgmA8p7-132" value="" style="shape=partialRectangle;html=1;whiteSpace=wrap;connectable=0;strokeColor=#6c8ebf;overflow=hidden;fillColor=#dae8fc;top=0;left=0;bottom=0;right=0;pointerEvents=1;fontSize=16;" parent="wal_cVfc2_v4ucgmA8p7-129" vertex="1">
          <mxGeometry x="120" width="60" height="40" as="geometry">
            <mxRectangle width="60" height="40" as="alternateBounds" />
          </mxGeometry>
        </mxCell>
        <mxCell id="wal_cVfc2_v4ucgmA8p7-133" value="回收后" style="text;strokeColor=none;fillColor=none;html=1;fontSize=24;fontStyle=1;verticalAlign=middle;align=center;" parent="1" vertex="1">
          <mxGeometry x="687.5" y="1910" width="100" height="40" as="geometry" />
        </mxCell>
        <mxCell id="wal_cVfc2_v4ucgmA8p7-134" value="回收前" style="text;strokeColor=none;fillColor=none;html=1;fontSize=24;fontStyle=1;verticalAlign=middle;align=center;" parent="1" vertex="1">
          <mxGeometry x="282.5" y="1910" width="100" height="40" as="geometry" />
        </mxCell>
        <mxCell id="wal_cVfc2_v4ucgmA8p7-135" value="" style="shape=partialRectangle;html=1;whiteSpace=wrap;connectable=0;overflow=hidden;top=0;left=0;bottom=0;right=0;pointerEvents=1;fontSize=16;" parent="1" vertex="1">
          <mxGeometry x="872.5" y="1970" width="60" height="40" as="geometry">
            <mxRectangle width="60" height="40" as="alternateBounds" />
          </mxGeometry>
        </mxCell>
        <mxCell id="wal_cVfc2_v4ucgmA8p7-137" value="" style="shape=table;startSize=0;container=1;collapsible=0;childLayout=tableLayout;fontSize=16;" parent="1" vertex="1">
          <mxGeometry x="760" y="2200" width="180" height="120" as="geometry" />
        </mxCell>
        <mxCell id="wal_cVfc2_v4ucgmA8p7-138" value="" style="shape=tableRow;horizontal=0;startSize=0;swimlaneHead=0;swimlaneBody=0;strokeColor=inherit;top=0;left=0;bottom=0;right=0;collapsible=0;dropTarget=0;fillColor=none;points=[[0,0.5],[1,0.5]];portConstraint=eastwest;fontSize=16;" parent="wal_cVfc2_v4ucgmA8p7-137" vertex="1">
          <mxGeometry width="180" height="40" as="geometry" />
        </mxCell>
        <mxCell id="wal_cVfc2_v4ucgmA8p7-139" value="" style="shape=partialRectangle;html=1;whiteSpace=wrap;connectable=0;strokeColor=#6c8ebf;overflow=hidden;fillColor=#dae8fc;top=0;left=0;bottom=0;right=0;pointerEvents=1;fontSize=16;" parent="wal_cVfc2_v4ucgmA8p7-138" vertex="1">
          <mxGeometry width="60" height="40" as="geometry">
            <mxRectangle width="60" height="40" as="alternateBounds" />
          </mxGeometry>
        </mxCell>
        <mxCell id="wal_cVfc2_v4ucgmA8p7-140" value="" style="shape=partialRectangle;html=1;whiteSpace=wrap;connectable=0;strokeColor=#6c8ebf;overflow=hidden;fillColor=#dae8fc;top=0;left=0;bottom=0;right=0;pointerEvents=1;fontSize=16;" parent="wal_cVfc2_v4ucgmA8p7-138" vertex="1">
          <mxGeometry x="60" width="60" height="40" as="geometry">
            <mxRectangle width="60" height="40" as="alternateBounds" />
          </mxGeometry>
        </mxCell>
        <mxCell id="wal_cVfc2_v4ucgmA8p7-141" value="" style="shape=partialRectangle;html=1;whiteSpace=wrap;connectable=0;overflow=hidden;top=0;left=0;bottom=0;right=0;pointerEvents=1;fontSize=16;" parent="wal_cVfc2_v4ucgmA8p7-138" vertex="1">
          <mxGeometry x="120" width="60" height="40" as="geometry">
            <mxRectangle width="60" height="40" as="alternateBounds" />
          </mxGeometry>
        </mxCell>
        <mxCell id="wal_cVfc2_v4ucgmA8p7-142" value="" style="shape=tableRow;horizontal=0;startSize=0;swimlaneHead=0;swimlaneBody=0;strokeColor=inherit;top=0;left=0;bottom=0;right=0;collapsible=0;dropTarget=0;fillColor=none;points=[[0,0.5],[1,0.5]];portConstraint=eastwest;fontSize=16;" parent="wal_cVfc2_v4ucgmA8p7-137" vertex="1">
          <mxGeometry y="40" width="180" height="40" as="geometry" />
        </mxCell>
        <mxCell id="wal_cVfc2_v4ucgmA8p7-143" value="" style="shape=partialRectangle;html=1;whiteSpace=wrap;connectable=0;strokeColor=#6c8ebf;overflow=hidden;fillColor=#dae8fc;top=0;left=0;bottom=0;right=0;pointerEvents=1;fontSize=16;" parent="wal_cVfc2_v4ucgmA8p7-142" vertex="1">
          <mxGeometry width="60" height="40" as="geometry">
            <mxRectangle width="60" height="40" as="alternateBounds" />
          </mxGeometry>
        </mxCell>
        <mxCell id="wal_cVfc2_v4ucgmA8p7-144" value="" style="shape=partialRectangle;html=1;whiteSpace=wrap;connectable=0;overflow=hidden;top=0;left=0;bottom=0;right=0;pointerEvents=1;fontSize=16;" parent="wal_cVfc2_v4ucgmA8p7-142" vertex="1">
          <mxGeometry x="60" width="60" height="40" as="geometry">
            <mxRectangle width="60" height="40" as="alternateBounds" />
          </mxGeometry>
        </mxCell>
        <mxCell id="wal_cVfc2_v4ucgmA8p7-145" value="" style="shape=partialRectangle;html=1;whiteSpace=wrap;connectable=0;strokeColor=inherit;overflow=hidden;fillColor=none;top=0;left=0;bottom=0;right=0;pointerEvents=1;fontSize=16;" parent="wal_cVfc2_v4ucgmA8p7-142" vertex="1">
          <mxGeometry x="120" width="60" height="40" as="geometry">
            <mxRectangle width="60" height="40" as="alternateBounds" />
          </mxGeometry>
        </mxCell>
        <mxCell id="wal_cVfc2_v4ucgmA8p7-146" value="" style="shape=tableRow;horizontal=0;startSize=0;swimlaneHead=0;swimlaneBody=0;strokeColor=inherit;top=0;left=0;bottom=0;right=0;collapsible=0;dropTarget=0;fillColor=none;points=[[0,0.5],[1,0.5]];portConstraint=eastwest;fontSize=16;" parent="wal_cVfc2_v4ucgmA8p7-137" vertex="1">
          <mxGeometry y="80" width="180" height="40" as="geometry" />
        </mxCell>
        <mxCell id="wal_cVfc2_v4ucgmA8p7-147" value="" style="shape=partialRectangle;html=1;whiteSpace=wrap;connectable=0;strokeColor=#6c8ebf;overflow=hidden;fillColor=#dae8fc;top=0;left=0;bottom=0;right=0;pointerEvents=1;fontSize=16;" parent="wal_cVfc2_v4ucgmA8p7-146" vertex="1">
          <mxGeometry width="60" height="40" as="geometry">
            <mxRectangle width="60" height="40" as="alternateBounds" />
          </mxGeometry>
        </mxCell>
        <mxCell id="wal_cVfc2_v4ucgmA8p7-148" value="" style="shape=partialRectangle;html=1;whiteSpace=wrap;connectable=0;strokeColor=#6c8ebf;overflow=hidden;fillColor=#dae8fc;top=0;left=0;bottom=0;right=0;pointerEvents=1;fontSize=16;" parent="wal_cVfc2_v4ucgmA8p7-146" vertex="1">
          <mxGeometry x="60" width="60" height="40" as="geometry">
            <mxRectangle width="60" height="40" as="alternateBounds" />
          </mxGeometry>
        </mxCell>
        <mxCell id="wal_cVfc2_v4ucgmA8p7-149" value="" style="shape=partialRectangle;html=1;whiteSpace=wrap;connectable=0;overflow=hidden;top=0;left=0;bottom=0;right=0;pointerEvents=1;fontSize=16;" parent="wal_cVfc2_v4ucgmA8p7-146" vertex="1">
          <mxGeometry x="120" width="60" height="40" as="geometry">
            <mxRectangle width="60" height="40" as="alternateBounds" />
          </mxGeometry>
        </mxCell>
        <mxCell id="wal_cVfc2_v4ucgmA8p7-163" value="" style="shape=table;startSize=0;container=1;collapsible=0;childLayout=tableLayout;fontSize=16;fillColor=#d5e8d4;strokeColor=#82b366;" parent="1" vertex="1">
          <mxGeometry x="150" y="2200" width="180" height="120" as="geometry" />
        </mxCell>
        <mxCell id="wal_cVfc2_v4ucgmA8p7-164" value="" style="shape=tableRow;horizontal=0;startSize=0;swimlaneHead=0;swimlaneBody=0;strokeColor=inherit;top=0;left=0;bottom=0;right=0;collapsible=0;dropTarget=0;fillColor=none;points=[[0,0.5],[1,0.5]];portConstraint=eastwest;fontSize=16;" parent="wal_cVfc2_v4ucgmA8p7-163" vertex="1">
          <mxGeometry width="180" height="40" as="geometry" />
        </mxCell>
        <mxCell id="wal_cVfc2_v4ucgmA8p7-165" value="" style="shape=partialRectangle;html=1;whiteSpace=wrap;connectable=0;strokeColor=#6c8ebf;overflow=hidden;fillColor=#dae8fc;top=0;left=0;bottom=0;right=0;pointerEvents=1;fontSize=16;" parent="wal_cVfc2_v4ucgmA8p7-164" vertex="1">
          <mxGeometry width="60" height="40" as="geometry">
            <mxRectangle width="60" height="40" as="alternateBounds" />
          </mxGeometry>
        </mxCell>
        <mxCell id="wal_cVfc2_v4ucgmA8p7-166" value="" style="shape=partialRectangle;html=1;whiteSpace=wrap;connectable=0;strokeColor=inherit;overflow=hidden;fillColor=none;top=0;left=0;bottom=0;right=0;pointerEvents=1;fontSize=16;" parent="wal_cVfc2_v4ucgmA8p7-164" vertex="1">
          <mxGeometry x="60" width="60" height="40" as="geometry">
            <mxRectangle width="60" height="40" as="alternateBounds" />
          </mxGeometry>
        </mxCell>
        <mxCell id="wal_cVfc2_v4ucgmA8p7-167" value="" style="shape=partialRectangle;html=1;whiteSpace=wrap;connectable=0;strokeColor=#6c8ebf;overflow=hidden;fillColor=#dae8fc;top=0;left=0;bottom=0;right=0;pointerEvents=1;fontSize=16;" parent="wal_cVfc2_v4ucgmA8p7-164" vertex="1">
          <mxGeometry x="120" width="60" height="40" as="geometry">
            <mxRectangle width="60" height="40" as="alternateBounds" />
          </mxGeometry>
        </mxCell>
        <mxCell id="wal_cVfc2_v4ucgmA8p7-168" value="" style="shape=tableRow;horizontal=0;startSize=0;swimlaneHead=0;swimlaneBody=0;strokeColor=inherit;top=0;left=0;bottom=0;right=0;collapsible=0;dropTarget=0;fillColor=none;points=[[0,0.5],[1,0.5]];portConstraint=eastwest;fontSize=16;" parent="wal_cVfc2_v4ucgmA8p7-163" vertex="1">
          <mxGeometry y="40" width="180" height="40" as="geometry" />
        </mxCell>
        <mxCell id="wal_cVfc2_v4ucgmA8p7-169" value="" style="shape=partialRectangle;html=1;whiteSpace=wrap;connectable=0;strokeColor=inherit;overflow=hidden;fillColor=none;top=0;left=0;bottom=0;right=0;pointerEvents=1;fontSize=16;" parent="wal_cVfc2_v4ucgmA8p7-168" vertex="1">
          <mxGeometry width="60" height="40" as="geometry">
            <mxRectangle width="60" height="40" as="alternateBounds" />
          </mxGeometry>
        </mxCell>
        <mxCell id="wal_cVfc2_v4ucgmA8p7-170" value="" style="shape=partialRectangle;html=1;whiteSpace=wrap;connectable=0;strokeColor=#6c8ebf;overflow=hidden;fillColor=#dae8fc;top=0;left=0;bottom=0;right=0;pointerEvents=1;fontSize=16;" parent="wal_cVfc2_v4ucgmA8p7-168" vertex="1">
          <mxGeometry x="60" width="60" height="40" as="geometry">
            <mxRectangle width="60" height="40" as="alternateBounds" />
          </mxGeometry>
        </mxCell>
        <mxCell id="wal_cVfc2_v4ucgmA8p7-171" value="" style="shape=partialRectangle;html=1;whiteSpace=wrap;connectable=0;strokeColor=inherit;overflow=hidden;fillColor=none;top=0;left=0;bottom=0;right=0;pointerEvents=1;fontSize=16;" parent="wal_cVfc2_v4ucgmA8p7-168" vertex="1">
          <mxGeometry x="120" width="60" height="40" as="geometry">
            <mxRectangle width="60" height="40" as="alternateBounds" />
          </mxGeometry>
        </mxCell>
        <mxCell id="wal_cVfc2_v4ucgmA8p7-172" value="" style="shape=tableRow;horizontal=0;startSize=0;swimlaneHead=0;swimlaneBody=0;strokeColor=inherit;top=0;left=0;bottom=0;right=0;collapsible=0;dropTarget=0;fillColor=none;points=[[0,0.5],[1,0.5]];portConstraint=eastwest;fontSize=16;" parent="wal_cVfc2_v4ucgmA8p7-163" vertex="1">
          <mxGeometry y="80" width="180" height="40" as="geometry" />
        </mxCell>
        <mxCell id="wal_cVfc2_v4ucgmA8p7-173" value="" style="shape=partialRectangle;html=1;whiteSpace=wrap;connectable=0;strokeColor=#6c8ebf;overflow=hidden;fillColor=#dae8fc;top=0;left=0;bottom=0;right=0;pointerEvents=1;fontSize=16;" parent="wal_cVfc2_v4ucgmA8p7-172" vertex="1">
          <mxGeometry width="60" height="40" as="geometry">
            <mxRectangle width="60" height="40" as="alternateBounds" />
          </mxGeometry>
        </mxCell>
        <mxCell id="wal_cVfc2_v4ucgmA8p7-174" value="" style="shape=partialRectangle;html=1;whiteSpace=wrap;connectable=0;strokeColor=inherit;overflow=hidden;fillColor=none;top=0;left=0;bottom=0;right=0;pointerEvents=1;fontSize=16;" parent="wal_cVfc2_v4ucgmA8p7-172" vertex="1">
          <mxGeometry x="60" width="60" height="40" as="geometry">
            <mxRectangle width="60" height="40" as="alternateBounds" />
          </mxGeometry>
        </mxCell>
        <mxCell id="wal_cVfc2_v4ucgmA8p7-175" value="" style="shape=partialRectangle;html=1;whiteSpace=wrap;connectable=0;strokeColor=#6c8ebf;overflow=hidden;fillColor=#dae8fc;top=0;left=0;bottom=0;right=0;pointerEvents=1;fontSize=16;" parent="wal_cVfc2_v4ucgmA8p7-172" vertex="1">
          <mxGeometry x="120" width="60" height="40" as="geometry">
            <mxRectangle width="60" height="40" as="alternateBounds" />
          </mxGeometry>
        </mxCell>
        <mxCell id="wal_cVfc2_v4ucgmA8p7-189" value="回收后" style="text;strokeColor=none;fillColor=none;html=1;fontSize=24;fontStyle=1;verticalAlign=middle;align=center;" parent="1" vertex="1">
          <mxGeometry x="687.5" y="2140" width="100" height="40" as="geometry" />
        </mxCell>
        <mxCell id="wal_cVfc2_v4ucgmA8p7-190" value="回收前" style="text;strokeColor=none;fillColor=none;html=1;fontSize=24;fontStyle=1;verticalAlign=middle;align=center;" parent="1" vertex="1">
          <mxGeometry x="282.5" y="2140" width="100" height="40" as="geometry" />
        </mxCell>
        <mxCell id="wal_cVfc2_v4ucgmA8p7-191" value="" style="shape=partialRectangle;html=1;whiteSpace=wrap;connectable=0;overflow=hidden;top=0;left=0;bottom=0;right=0;pointerEvents=1;fontSize=16;" parent="1" vertex="1">
          <mxGeometry x="872.5" y="2200" width="60" height="40" as="geometry">
            <mxRectangle width="60" height="40" as="alternateBounds" />
          </mxGeometry>
        </mxCell>
        <mxCell id="wal_cVfc2_v4ucgmA8p7-192" value="" style="shape=table;startSize=0;container=1;collapsible=0;childLayout=tableLayout;fontSize=16;" parent="1" vertex="1">
          <mxGeometry x="330" y="2200" width="180" height="120" as="geometry" />
        </mxCell>
        <mxCell id="wal_cVfc2_v4ucgmA8p7-193" value="" style="shape=tableRow;horizontal=0;startSize=0;swimlaneHead=0;swimlaneBody=0;strokeColor=inherit;top=0;left=0;bottom=0;right=0;collapsible=0;dropTarget=0;fillColor=none;points=[[0,0.5],[1,0.5]];portConstraint=eastwest;fontSize=16;" parent="wal_cVfc2_v4ucgmA8p7-192" vertex="1">
          <mxGeometry width="180" height="40" as="geometry" />
        </mxCell>
        <mxCell id="wal_cVfc2_v4ucgmA8p7-194" value="" style="shape=partialRectangle;html=1;whiteSpace=wrap;connectable=0;strokeColor=inherit;overflow=hidden;fillColor=none;top=0;left=0;bottom=0;right=0;pointerEvents=1;fontSize=16;" parent="wal_cVfc2_v4ucgmA8p7-193" vertex="1">
          <mxGeometry width="60" height="40" as="geometry">
            <mxRectangle width="60" height="40" as="alternateBounds" />
          </mxGeometry>
        </mxCell>
        <mxCell id="wal_cVfc2_v4ucgmA8p7-195" value="" style="shape=partialRectangle;html=1;whiteSpace=wrap;connectable=0;strokeColor=inherit;overflow=hidden;fillColor=none;top=0;left=0;bottom=0;right=0;pointerEvents=1;fontSize=16;" parent="wal_cVfc2_v4ucgmA8p7-193" vertex="1">
          <mxGeometry x="60" width="60" height="40" as="geometry">
            <mxRectangle width="60" height="40" as="alternateBounds" />
          </mxGeometry>
        </mxCell>
        <mxCell id="wal_cVfc2_v4ucgmA8p7-196" value="" style="shape=partialRectangle;html=1;whiteSpace=wrap;connectable=0;strokeColor=inherit;overflow=hidden;fillColor=none;top=0;left=0;bottom=0;right=0;pointerEvents=1;fontSize=16;" parent="wal_cVfc2_v4ucgmA8p7-193" vertex="1">
          <mxGeometry x="120" width="60" height="40" as="geometry">
            <mxRectangle width="60" height="40" as="alternateBounds" />
          </mxGeometry>
        </mxCell>
        <mxCell id="wal_cVfc2_v4ucgmA8p7-197" value="" style="shape=tableRow;horizontal=0;startSize=0;swimlaneHead=0;swimlaneBody=0;strokeColor=inherit;top=0;left=0;bottom=0;right=0;collapsible=0;dropTarget=0;fillColor=none;points=[[0,0.5],[1,0.5]];portConstraint=eastwest;fontSize=16;" parent="wal_cVfc2_v4ucgmA8p7-192" vertex="1">
          <mxGeometry y="40" width="180" height="40" as="geometry" />
        </mxCell>
        <mxCell id="wal_cVfc2_v4ucgmA8p7-198" value="" style="shape=partialRectangle;html=1;whiteSpace=wrap;connectable=0;strokeColor=inherit;overflow=hidden;fillColor=none;top=0;left=0;bottom=0;right=0;pointerEvents=1;fontSize=16;" parent="wal_cVfc2_v4ucgmA8p7-197" vertex="1">
          <mxGeometry width="60" height="40" as="geometry">
            <mxRectangle width="60" height="40" as="alternateBounds" />
          </mxGeometry>
        </mxCell>
        <mxCell id="wal_cVfc2_v4ucgmA8p7-199" value="" style="shape=partialRectangle;html=1;whiteSpace=wrap;connectable=0;strokeColor=inherit;overflow=hidden;fillColor=none;top=0;left=0;bottom=0;right=0;pointerEvents=1;fontSize=16;" parent="wal_cVfc2_v4ucgmA8p7-197" vertex="1">
          <mxGeometry x="60" width="60" height="40" as="geometry">
            <mxRectangle width="60" height="40" as="alternateBounds" />
          </mxGeometry>
        </mxCell>
        <mxCell id="wal_cVfc2_v4ucgmA8p7-200" value="" style="shape=partialRectangle;html=1;whiteSpace=wrap;connectable=0;strokeColor=inherit;overflow=hidden;fillColor=none;top=0;left=0;bottom=0;right=0;pointerEvents=1;fontSize=16;" parent="wal_cVfc2_v4ucgmA8p7-197" vertex="1">
          <mxGeometry x="120" width="60" height="40" as="geometry">
            <mxRectangle width="60" height="40" as="alternateBounds" />
          </mxGeometry>
        </mxCell>
        <mxCell id="wal_cVfc2_v4ucgmA8p7-201" value="" style="shape=tableRow;horizontal=0;startSize=0;swimlaneHead=0;swimlaneBody=0;strokeColor=inherit;top=0;left=0;bottom=0;right=0;collapsible=0;dropTarget=0;fillColor=none;points=[[0,0.5],[1,0.5]];portConstraint=eastwest;fontSize=16;" parent="wal_cVfc2_v4ucgmA8p7-192" vertex="1">
          <mxGeometry y="80" width="180" height="40" as="geometry" />
        </mxCell>
        <mxCell id="wal_cVfc2_v4ucgmA8p7-202" value="" style="shape=partialRectangle;html=1;whiteSpace=wrap;connectable=0;strokeColor=inherit;overflow=hidden;fillColor=none;top=0;left=0;bottom=0;right=0;pointerEvents=1;fontSize=16;" parent="wal_cVfc2_v4ucgmA8p7-201" vertex="1">
          <mxGeometry width="60" height="40" as="geometry">
            <mxRectangle width="60" height="40" as="alternateBounds" />
          </mxGeometry>
        </mxCell>
        <mxCell id="wal_cVfc2_v4ucgmA8p7-203" value="" style="shape=partialRectangle;html=1;whiteSpace=wrap;connectable=0;strokeColor=inherit;overflow=hidden;fillColor=none;top=0;left=0;bottom=0;right=0;pointerEvents=1;fontSize=16;" parent="wal_cVfc2_v4ucgmA8p7-201" vertex="1">
          <mxGeometry x="60" width="60" height="40" as="geometry">
            <mxRectangle width="60" height="40" as="alternateBounds" />
          </mxGeometry>
        </mxCell>
        <mxCell id="wal_cVfc2_v4ucgmA8p7-204" value="" style="shape=partialRectangle;html=1;whiteSpace=wrap;connectable=0;strokeColor=inherit;overflow=hidden;fillColor=none;top=0;left=0;bottom=0;right=0;pointerEvents=1;fontSize=16;" parent="wal_cVfc2_v4ucgmA8p7-201" vertex="1">
          <mxGeometry x="120" width="60" height="40" as="geometry">
            <mxRectangle width="60" height="40" as="alternateBounds" />
          </mxGeometry>
        </mxCell>
        <mxCell id="wal_cVfc2_v4ucgmA8p7-205" value="" style="shape=table;startSize=0;container=1;collapsible=0;childLayout=tableLayout;fontSize=16;" parent="1" vertex="1">
          <mxGeometry x="580" y="2200" width="180" height="120" as="geometry" />
        </mxCell>
        <mxCell id="wal_cVfc2_v4ucgmA8p7-206" value="" style="shape=tableRow;horizontal=0;startSize=0;swimlaneHead=0;swimlaneBody=0;strokeColor=inherit;top=0;left=0;bottom=0;right=0;collapsible=0;dropTarget=0;fillColor=none;points=[[0,0.5],[1,0.5]];portConstraint=eastwest;fontSize=16;" parent="wal_cVfc2_v4ucgmA8p7-205" vertex="1">
          <mxGeometry width="180" height="40" as="geometry" />
        </mxCell>
        <mxCell id="wal_cVfc2_v4ucgmA8p7-207" value="" style="shape=partialRectangle;html=1;whiteSpace=wrap;connectable=0;strokeColor=inherit;overflow=hidden;fillColor=none;top=0;left=0;bottom=0;right=0;pointerEvents=1;fontSize=16;" parent="wal_cVfc2_v4ucgmA8p7-206" vertex="1">
          <mxGeometry width="60" height="40" as="geometry">
            <mxRectangle width="60" height="40" as="alternateBounds" />
          </mxGeometry>
        </mxCell>
        <mxCell id="wal_cVfc2_v4ucgmA8p7-208" value="" style="shape=partialRectangle;html=1;whiteSpace=wrap;connectable=0;strokeColor=inherit;overflow=hidden;fillColor=none;top=0;left=0;bottom=0;right=0;pointerEvents=1;fontSize=16;" parent="wal_cVfc2_v4ucgmA8p7-206" vertex="1">
          <mxGeometry x="60" width="60" height="40" as="geometry">
            <mxRectangle width="60" height="40" as="alternateBounds" />
          </mxGeometry>
        </mxCell>
        <mxCell id="wal_cVfc2_v4ucgmA8p7-209" value="" style="shape=partialRectangle;html=1;whiteSpace=wrap;connectable=0;strokeColor=inherit;overflow=hidden;fillColor=none;top=0;left=0;bottom=0;right=0;pointerEvents=1;fontSize=16;" parent="wal_cVfc2_v4ucgmA8p7-206" vertex="1">
          <mxGeometry x="120" width="60" height="40" as="geometry">
            <mxRectangle width="60" height="40" as="alternateBounds" />
          </mxGeometry>
        </mxCell>
        <mxCell id="wal_cVfc2_v4ucgmA8p7-210" value="" style="shape=tableRow;horizontal=0;startSize=0;swimlaneHead=0;swimlaneBody=0;strokeColor=inherit;top=0;left=0;bottom=0;right=0;collapsible=0;dropTarget=0;fillColor=none;points=[[0,0.5],[1,0.5]];portConstraint=eastwest;fontSize=16;" parent="wal_cVfc2_v4ucgmA8p7-205" vertex="1">
          <mxGeometry y="40" width="180" height="40" as="geometry" />
        </mxCell>
        <mxCell id="wal_cVfc2_v4ucgmA8p7-211" value="" style="shape=partialRectangle;html=1;whiteSpace=wrap;connectable=0;strokeColor=inherit;overflow=hidden;fillColor=none;top=0;left=0;bottom=0;right=0;pointerEvents=1;fontSize=16;" parent="wal_cVfc2_v4ucgmA8p7-210" vertex="1">
          <mxGeometry width="60" height="40" as="geometry">
            <mxRectangle width="60" height="40" as="alternateBounds" />
          </mxGeometry>
        </mxCell>
        <mxCell id="wal_cVfc2_v4ucgmA8p7-212" value="" style="shape=partialRectangle;html=1;whiteSpace=wrap;connectable=0;strokeColor=inherit;overflow=hidden;fillColor=none;top=0;left=0;bottom=0;right=0;pointerEvents=1;fontSize=16;" parent="wal_cVfc2_v4ucgmA8p7-210" vertex="1">
          <mxGeometry x="60" width="60" height="40" as="geometry">
            <mxRectangle width="60" height="40" as="alternateBounds" />
          </mxGeometry>
        </mxCell>
        <mxCell id="wal_cVfc2_v4ucgmA8p7-213" value="" style="shape=partialRectangle;html=1;whiteSpace=wrap;connectable=0;strokeColor=inherit;overflow=hidden;fillColor=none;top=0;left=0;bottom=0;right=0;pointerEvents=1;fontSize=16;" parent="wal_cVfc2_v4ucgmA8p7-210" vertex="1">
          <mxGeometry x="120" width="60" height="40" as="geometry">
            <mxRectangle width="60" height="40" as="alternateBounds" />
          </mxGeometry>
        </mxCell>
        <mxCell id="wal_cVfc2_v4ucgmA8p7-214" value="" style="shape=tableRow;horizontal=0;startSize=0;swimlaneHead=0;swimlaneBody=0;strokeColor=inherit;top=0;left=0;bottom=0;right=0;collapsible=0;dropTarget=0;fillColor=none;points=[[0,0.5],[1,0.5]];portConstraint=eastwest;fontSize=16;" parent="wal_cVfc2_v4ucgmA8p7-205" vertex="1">
          <mxGeometry y="80" width="180" height="40" as="geometry" />
        </mxCell>
        <mxCell id="wal_cVfc2_v4ucgmA8p7-215" value="" style="shape=partialRectangle;html=1;whiteSpace=wrap;connectable=0;strokeColor=inherit;overflow=hidden;fillColor=none;top=0;left=0;bottom=0;right=0;pointerEvents=1;fontSize=16;" parent="wal_cVfc2_v4ucgmA8p7-214" vertex="1">
          <mxGeometry width="60" height="40" as="geometry">
            <mxRectangle width="60" height="40" as="alternateBounds" />
          </mxGeometry>
        </mxCell>
        <mxCell id="wal_cVfc2_v4ucgmA8p7-216" value="" style="shape=partialRectangle;html=1;whiteSpace=wrap;connectable=0;strokeColor=inherit;overflow=hidden;fillColor=none;top=0;left=0;bottom=0;right=0;pointerEvents=1;fontSize=16;" parent="wal_cVfc2_v4ucgmA8p7-214" vertex="1">
          <mxGeometry x="60" width="60" height="40" as="geometry">
            <mxRectangle width="60" height="40" as="alternateBounds" />
          </mxGeometry>
        </mxCell>
        <mxCell id="wal_cVfc2_v4ucgmA8p7-217" value="" style="shape=partialRectangle;html=1;whiteSpace=wrap;connectable=0;strokeColor=inherit;overflow=hidden;fillColor=none;top=0;left=0;bottom=0;right=0;pointerEvents=1;fontSize=16;" parent="wal_cVfc2_v4ucgmA8p7-214" vertex="1">
          <mxGeometry x="120" width="60" height="40" as="geometry">
            <mxRectangle width="60" height="40" as="alternateBounds" />
          </mxGeometry>
        </mxCell>
        <mxCell id="wal_cVfc2_v4ucgmA8p7-221" value="" style="rounded=0;whiteSpace=wrap;html=1;fillColor=#d5e8d4;strokeColor=#82b366;" parent="1" vertex="1">
          <mxGeometry x="610" y="2630" width="440" height="330" as="geometry" />
        </mxCell>
        <mxCell id="wal_cVfc2_v4ucgmA8p7-222" value="&lt;font face=&quot;Comic Sans MS&quot; style=&quot;font-size: 22px;&quot;&gt;Eden&lt;/font&gt;" style="rounded=0;whiteSpace=wrap;html=1;fillColor=#dae8fc;strokeColor=#6c8ebf;" parent="1" vertex="1">
          <mxGeometry x="280" y="2630" width="190" height="330" as="geometry" />
        </mxCell>
        <mxCell id="wal_cVfc2_v4ucgmA8p7-223" value="&lt;font face=&quot;Comic Sans MS&quot; style=&quot;font-size: 22px;&quot;&gt;From&lt;/font&gt;" style="rounded=0;whiteSpace=wrap;html=1;fillColor=#ffe6cc;strokeColor=#d79b00;" parent="1" vertex="1">
          <mxGeometry x="470" y="2630" width="70" height="330" as="geometry" />
        </mxCell>
        <mxCell id="wal_cVfc2_v4ucgmA8p7-224" value="&lt;font face=&quot;Comic Sans MS&quot; style=&quot;font-size: 22px;&quot;&gt;To&lt;/font&gt;" style="rounded=0;whiteSpace=wrap;html=1;fillColor=#fff2cc;strokeColor=#d6b656;" parent="1" vertex="1">
          <mxGeometry x="540" y="2630" width="70" height="330" as="geometry" />
        </mxCell>
        <mxCell id="wal_cVfc2_v4ucgmA8p7-225" value="" style="shape=curlyBracket;whiteSpace=wrap;html=1;rounded=1;flipH=1;labelPosition=right;verticalLabelPosition=middle;align=left;verticalAlign=middle;rotation=-90;" parent="1" vertex="1">
          <mxGeometry x="427.5" y="2447.5" width="35" height="330" as="geometry" />
        </mxCell>
        <mxCell id="wal_cVfc2_v4ucgmA8p7-226" value="" style="shape=curlyBracket;whiteSpace=wrap;html=1;rounded=1;flipH=1;labelPosition=right;verticalLabelPosition=middle;align=left;verticalAlign=middle;rotation=-90;" parent="1" vertex="1">
          <mxGeometry x="811.25" y="2396.25" width="35" height="432.5" as="geometry" />
        </mxCell>
        <mxCell id="wal_cVfc2_v4ucgmA8p7-227" value="年轻代" style="text;strokeColor=none;fillColor=none;html=1;fontSize=24;fontStyle=1;verticalAlign=middle;align=center;" parent="1" vertex="1">
          <mxGeometry x="403" y="2550" width="100" height="40" as="geometry" />
        </mxCell>
        <mxCell id="wal_cVfc2_v4ucgmA8p7-228" value="老年代" style="text;strokeColor=none;fillColor=none;html=1;fontSize=24;fontStyle=1;verticalAlign=middle;align=center;" parent="1" vertex="1">
          <mxGeometry x="780" y="2550" width="100" height="40" as="geometry" />
        </mxCell>
        <mxCell id="7qjoNf8k50oeYzj5r46e-1" value="&lt;font face=&quot;Comic Sans MS&quot; style=&quot;font-size: 22px;&quot;&gt;启动类加载器&lt;br&gt;Bootstrap ClassLoader&lt;/font&gt;" style="rounded=1;whiteSpace=wrap;html=1;strokeWidth=2;fillWeight=4;hachureGap=8;hachureAngle=45;sketch=1;fillColor=#dae8fc;strokeColor=#6c8ebf;" parent="1" vertex="1">
          <mxGeometry x="730" y="3080" width="330" height="130" as="geometry" />
        </mxCell>
        <mxCell id="7qjoNf8k50oeYzj5r46e-3" style="edgeStyle=orthogonalEdgeStyle;rounded=0;orthogonalLoop=1;jettySize=auto;html=1;exitX=0.5;exitY=0;exitDx=0;exitDy=0;strokeWidth=3;" parent="1" source="7qjoNf8k50oeYzj5r46e-2" target="7qjoNf8k50oeYzj5r46e-1" edge="1">
          <mxGeometry relative="1" as="geometry" />
        </mxCell>
        <mxCell id="7qjoNf8k50oeYzj5r46e-2" value="&lt;font face=&quot;Comic Sans MS&quot; style=&quot;font-size: 22px;&quot;&gt;拓展类加载器&lt;br&gt;Ext ClassLoader&lt;/font&gt;" style="rounded=1;whiteSpace=wrap;html=1;strokeWidth=2;fillWeight=4;hachureGap=8;hachureAngle=45;sketch=1;fillColor=#dae8fc;strokeColor=#6c8ebf;" parent="1" vertex="1">
          <mxGeometry x="730" y="3280" width="330" height="130" as="geometry" />
        </mxCell>
        <mxCell id="7qjoNf8k50oeYzj5r46e-5" style="edgeStyle=orthogonalEdgeStyle;rounded=0;orthogonalLoop=1;jettySize=auto;html=1;exitX=0.5;exitY=0;exitDx=0;exitDy=0;strokeWidth=3;" parent="1" source="7qjoNf8k50oeYzj5r46e-4" target="7qjoNf8k50oeYzj5r46e-2" edge="1">
          <mxGeometry relative="1" as="geometry" />
        </mxCell>
        <mxCell id="7qjoNf8k50oeYzj5r46e-4" value="&lt;font face=&quot;Comic Sans MS&quot; style=&quot;font-size: 22px;&quot;&gt;应用程序类加载器&lt;br&gt;App ClassLoader&lt;/font&gt;" style="rounded=1;whiteSpace=wrap;html=1;strokeWidth=2;fillWeight=4;hachureGap=8;hachureAngle=45;sketch=1;fillColor=#dae8fc;strokeColor=#6c8ebf;" parent="1" vertex="1">
          <mxGeometry x="730" y="3490" width="330" height="130" as="geometry" />
        </mxCell>
        <mxCell id="7qjoNf8k50oeYzj5r46e-7" style="edgeStyle=orthogonalEdgeStyle;rounded=0;orthogonalLoop=1;jettySize=auto;html=1;exitX=0.5;exitY=0;exitDx=0;exitDy=0;strokeWidth=3;" parent="1" source="7qjoNf8k50oeYzj5r46e-6" target="7qjoNf8k50oeYzj5r46e-4" edge="1">
          <mxGeometry relative="1" as="geometry" />
        </mxCell>
        <mxCell id="7qjoNf8k50oeYzj5r46e-6" value="&lt;font face=&quot;Comic Sans MS&quot; style=&quot;font-size: 22px;&quot;&gt;自定义类加载器&lt;br&gt;Self ClassLoader&lt;/font&gt;" style="rounded=1;whiteSpace=wrap;html=1;strokeWidth=2;fillWeight=4;hachureGap=8;hachureAngle=45;sketch=1;fillColor=#dae8fc;strokeColor=#6c8ebf;" parent="1" vertex="1">
          <mxGeometry x="730" y="3710" width="330" height="130" as="geometry" />
        </mxCell>
        <mxCell id="7qjoNf8k50oeYzj5r46e-8" value="向上委托" style="text;html=1;strokeColor=none;fillColor=none;align=center;verticalAlign=middle;whiteSpace=wrap;rounded=0;fontSize=22;" parent="1" vertex="1">
          <mxGeometry x="765" y="3220" width="115" height="50" as="geometry" />
        </mxCell>
        <mxCell id="7qjoNf8k50oeYzj5r46e-9" value="向上委托" style="text;html=1;strokeColor=none;fillColor=none;align=center;verticalAlign=middle;whiteSpace=wrap;rounded=0;fontSize=22;" parent="1" vertex="1">
          <mxGeometry x="760" y="3420" width="115" height="50" as="geometry" />
        </mxCell>
        <mxCell id="7qjoNf8k50oeYzj5r46e-10" value="&lt;span style=&quot;font-size: 22px;&quot;&gt;源代码&lt;/span&gt;" style="rounded=1;whiteSpace=wrap;html=1;strokeWidth=2;fillWeight=4;hachureGap=8;hachureAngle=45;fillColor=#dae8fc;sketch=1;strokeColor=#6c8ebf;" parent="1" vertex="1">
          <mxGeometry x="1038.75" y="4320" width="263.75" height="120" as="geometry" />
        </mxCell>
        <mxCell id="7qjoNf8k50oeYzj5r46e-12" value="&lt;span style=&quot;font-size: 22px;&quot;&gt;机器码&lt;/span&gt;" style="rounded=1;whiteSpace=wrap;html=1;strokeWidth=2;fillWeight=4;hachureGap=8;hachureAngle=45;fillColor=#dae8fc;sketch=1;strokeColor=#6c8ebf;" parent="1" vertex="1">
          <mxGeometry x="2720" y="4320" width="263.75" height="120" as="geometry" />
        </mxCell>
        <mxCell id="7qjoNf8k50oeYzj5r46e-13" value="" style="shape=singleArrow;direction=north;whiteSpace=wrap;html=1;rotation=90;" parent="1" vertex="1">
          <mxGeometry x="2058.13" y="4295" width="60" height="170" as="geometry" />
        </mxCell>
        <mxCell id="7qjoNf8k50oeYzj5r46e-14" value="&lt;span style=&quot;font-size: 22px;&quot;&gt;字节码&lt;/span&gt;" style="rounded=1;whiteSpace=wrap;html=1;strokeWidth=2;fillWeight=4;hachureGap=8;hachureAngle=45;fillColor=#dae8fc;sketch=1;strokeColor=#6c8ebf;" parent="1" vertex="1">
          <mxGeometry x="1693.75" y="4320" width="263.75" height="120" as="geometry" />
        </mxCell>
        <mxCell id="7qjoNf8k50oeYzj5r46e-15" value="" style="shape=singleArrow;direction=north;whiteSpace=wrap;html=1;rotation=90;" parent="1" vertex="1">
          <mxGeometry x="1470" y="4250" width="60" height="280" as="geometry" />
        </mxCell>
        <mxCell id="7qjoNf8k50oeYzj5r46e-16" value="编译" style="text;strokeColor=none;fillColor=none;html=1;fontSize=24;fontStyle=1;verticalAlign=middle;align=center;" parent="1" vertex="1">
          <mxGeometry x="1440" y="4290" width="100" height="40" as="geometry" />
        </mxCell>
        <mxCell id="7qjoNf8k50oeYzj5r46e-21" value="&lt;span style=&quot;font-size: 22px;&quot;&gt;传统解释器&lt;/span&gt;" style="rounded=1;whiteSpace=wrap;html=1;strokeWidth=2;fillWeight=4;hachureGap=8;hachureAngle=45;fillColor=#dae8fc;sketch=1;strokeColor=#6c8ebf;" parent="1" vertex="1">
          <mxGeometry x="2217" y="4320" width="263.75" height="120" as="geometry" />
        </mxCell>
        <mxCell id="7qjoNf8k50oeYzj5r46e-22" value="" style="shape=singleArrow;direction=north;whiteSpace=wrap;html=1;rotation=90;" parent="1" vertex="1">
          <mxGeometry x="2570" y="4295" width="60" height="170" as="geometry" />
        </mxCell>
        <mxCell id="7qjoNf8k50oeYzj5r46e-24" value="&lt;span style=&quot;font-size: 22px;&quot;&gt;传统解释器&lt;/span&gt;" style="rounded=1;whiteSpace=wrap;html=1;strokeWidth=2;fillWeight=4;hachureGap=8;hachureAngle=45;fillColor=#dae8fc;sketch=1;strokeColor=#6c8ebf;" parent="1" vertex="1">
          <mxGeometry x="2228.13" y="4580" width="263.75" height="120" as="geometry" />
        </mxCell>
        <mxCell id="7qjoNf8k50oeYzj5r46e-25" value="第一次" style="text;strokeColor=none;fillColor=none;html=1;fontSize=24;fontStyle=1;verticalAlign=middle;align=center;" parent="1" vertex="1">
          <mxGeometry x="2030" y="4290" width="100" height="40" as="geometry" />
        </mxCell>
        <mxCell id="7qjoNf8k50oeYzj5r46e-26" value="" style="shape=singleArrow;direction=north;whiteSpace=wrap;html=1;rotation=115;" parent="1" vertex="1">
          <mxGeometry x="2032.5000000000002" y="4465" width="60" height="170" as="geometry" />
        </mxCell>
        <mxCell id="7qjoNf8k50oeYzj5r46e-27" value="" style="shape=singleArrow;direction=north;whiteSpace=wrap;html=1;rotation=55;" parent="1" vertex="1">
          <mxGeometry x="2590" y="4460" width="60" height="170" as="geometry" />
        </mxCell>
        <mxCell id="7qjoNf8k50oeYzj5r46e-28" value="运行时" style="text;strokeColor=none;fillColor=none;html=1;fontSize=24;fontStyle=1;verticalAlign=middle;align=center;" parent="1" vertex="1">
          <mxGeometry x="2032.5" y="4480" width="100" height="40" as="geometry" />
        </mxCell>
        <mxCell id="1vysiBBUUvej-au3Tldq-4" style="edgeStyle=orthogonalEdgeStyle;rounded=0;orthogonalLoop=1;jettySize=auto;html=1;exitX=0.5;exitY=1;exitDx=0;exitDy=0;entryX=0.5;entryY=0;entryDx=0;entryDy=0;" edge="1" parent="1" source="1vysiBBUUvej-au3Tldq-1" target="1vysiBBUUvej-au3Tldq-3">
          <mxGeometry relative="1" as="geometry" />
        </mxCell>
        <mxCell id="1vysiBBUUvej-au3Tldq-1" value="&lt;font style=&quot;font-size: 24px;&quot;&gt;使用&lt;/font&gt;" style="rounded=1;whiteSpace=wrap;html=1;strokeWidth=2;fillWeight=4;hachureGap=8;hachureAngle=45;fillColor=#d5e8d4;sketch=1;strokeColor=#82b366;" vertex="1" parent="1">
          <mxGeometry x="1840" y="5165" width="270" height="110" as="geometry" />
        </mxCell>
        <mxCell id="1vysiBBUUvej-au3Tldq-3" value="&lt;font style=&quot;font-size: 24px;&quot;&gt;卸载&lt;/font&gt;" style="rounded=1;whiteSpace=wrap;html=1;strokeWidth=2;fillWeight=4;hachureGap=8;hachureAngle=45;fillColor=#d5e8d4;sketch=1;strokeColor=#82b366;" vertex="1" parent="1">
          <mxGeometry x="1840" y="5430" width="270" height="110" as="geometry" />
        </mxCell>
      </root>
    </mxGraphModel>
  </diagram>
</mxfile>
